M48
; DRILL file {KiCad (5.1.5)-3} date 4/28/2020 10:00:48 PM
; FORMAT={-:-/ absolute / inch / decimal}
; #@! TF.CreationDate,2020-04-28T22:00:48-04:00
; #@! TF.GenerationSoftware,Kicad,Pcbnew,(5.1.5)-3
; #@! TF.FileFunction,Plated,1,2,PTH
FMAT,2
INCH
T1C0.0350
T2C0.0394
%
G90
G05
T1
X3.411Y-3.1215
X3.511Y-3.1215
X3.611Y-3.1215
X3.711Y-3.1215
X3.811Y-3.1215
X3.911Y-3.1215
X4.011Y-3.1215
X4.111Y-3.1215
X1.8595Y-3.1195
X1.9595Y-3.1195
X2.0595Y-3.1195
X2.1595Y-3.1195
X2.2595Y-3.1195
X2.3595Y-3.1195
X2.4595Y-3.1195
X2.5595Y-3.1195
T2
X2.032Y-3.981
X2.032Y-4.081
X2.132Y-3.981
X2.132Y-4.081
X2.232Y-3.981
X2.232Y-4.081
X2.332Y-3.981
X2.332Y-4.081
X2.432Y-3.981
X2.432Y-4.081
X2.532Y-3.981
X2.532Y-4.081
X2.632Y-3.981
X2.632Y-4.081
X2.732Y-3.981
X2.732Y-4.081
X2.832Y-3.981
X2.832Y-4.081
X2.932Y-3.981
X2.932Y-4.081
X3.032Y-3.981
X3.032Y-4.081
X3.132Y-3.981
X3.132Y-4.081
X3.232Y-3.981
X3.232Y-4.081
X3.332Y-3.981
X3.332Y-4.081
X3.432Y-3.981
X3.432Y-4.081
X3.532Y-3.981
X3.532Y-4.081
X3.632Y-3.981
X3.632Y-4.081
X3.732Y-3.981
X3.732Y-4.081
X3.832Y-3.981
X3.832Y-4.081
X3.932Y-3.981
X3.932Y-4.081
T0
M30
