G04 #@! TF.GenerationSoftware,KiCad,Pcbnew,(5.1.5)-3*
G04 #@! TF.CreationDate,2020-04-28T22:00:42-04:00*
G04 #@! TF.ProjectId,Ventilator_Monitor,56656e74-696c-4617-946f-725f4d6f6e69,rev?*
G04 #@! TF.SameCoordinates,Original*
G04 #@! TF.FileFunction,Soldermask,Bot*
G04 #@! TF.FilePolarity,Negative*
%FSLAX46Y46*%
G04 Gerber Fmt 4.6, Leading zero omitted, Abs format (unit mm)*
G04 Created by KiCad (PCBNEW (5.1.5)-3) date 2020-04-28 22:00:42*
%MOMM*%
%LPD*%
G04 APERTURE LIST*
%ADD10C,0.100000*%
%ADD11C,0.150000*%
%ADD12C,0.300000*%
%ADD13C,0.400000*%
G04 APERTURE END LIST*
D10*
D11*
X177002200Y-166007200D02*
X177002200Y-198007200D01*
X285002200Y-198007200D01*
X285002200Y-166007200D01*
X177002200Y-166007200D01*
D10*
D11*
X10000000Y-10000000D02*
X10000000Y-200007200D01*
X287002200Y-200007200D01*
X287002200Y-10000000D01*
X10000000Y-10000000D01*
D10*
D11*
X12000000Y-12000000D02*
X12000000Y-198007200D01*
X285002200Y-198007200D01*
X285002200Y-12000000D01*
X12000000Y-12000000D01*
D10*
D11*
X60000000Y-12000000D02*
X60000000Y-10000000D01*
D10*
D11*
X110000000Y-12000000D02*
X110000000Y-10000000D01*
D10*
D11*
X160000000Y-12000000D02*
X160000000Y-10000000D01*
D10*
D11*
X210000000Y-12000000D02*
X210000000Y-10000000D01*
D10*
D11*
X260000000Y-12000000D02*
X260000000Y-10000000D01*
D10*
D11*
X36065476Y-11588095D02*
X35322619Y-11588095D01*
X35694047Y-11588095D02*
X35694047Y-10288095D01*
X35570238Y-10473809D01*
X35446428Y-10597619D01*
X35322619Y-10659523D01*
D10*
D11*
X85322619Y-10411904D02*
X85384523Y-10350000D01*
X85508333Y-10288095D01*
X85817857Y-10288095D01*
X85941666Y-10350000D01*
X86003571Y-10411904D01*
X86065476Y-10535714D01*
X86065476Y-10659523D01*
X86003571Y-10845238D01*
X85260714Y-11588095D01*
X86065476Y-11588095D01*
D10*
D11*
X135260714Y-10288095D02*
X136065476Y-10288095D01*
X135632142Y-10783333D01*
X135817857Y-10783333D01*
X135941666Y-10845238D01*
X136003571Y-10907142D01*
X136065476Y-11030952D01*
X136065476Y-11340476D01*
X136003571Y-11464285D01*
X135941666Y-11526190D01*
X135817857Y-11588095D01*
X135446428Y-11588095D01*
X135322619Y-11526190D01*
X135260714Y-11464285D01*
D10*
D11*
X185941666Y-10721428D02*
X185941666Y-11588095D01*
X185632142Y-10226190D02*
X185322619Y-11154761D01*
X186127380Y-11154761D01*
D10*
D11*
X236003571Y-10288095D02*
X235384523Y-10288095D01*
X235322619Y-10907142D01*
X235384523Y-10845238D01*
X235508333Y-10783333D01*
X235817857Y-10783333D01*
X235941666Y-10845238D01*
X236003571Y-10907142D01*
X236065476Y-11030952D01*
X236065476Y-11340476D01*
X236003571Y-11464285D01*
X235941666Y-11526190D01*
X235817857Y-11588095D01*
X235508333Y-11588095D01*
X235384523Y-11526190D01*
X235322619Y-11464285D01*
D10*
D11*
X285941666Y-10288095D02*
X285694047Y-10288095D01*
X285570238Y-10350000D01*
X285508333Y-10411904D01*
X285384523Y-10597619D01*
X285322619Y-10845238D01*
X285322619Y-11340476D01*
X285384523Y-11464285D01*
X285446428Y-11526190D01*
X285570238Y-11588095D01*
X285817857Y-11588095D01*
X285941666Y-11526190D01*
X286003571Y-11464285D01*
X286065476Y-11340476D01*
X286065476Y-11030952D01*
X286003571Y-10907142D01*
X285941666Y-10845238D01*
X285817857Y-10783333D01*
X285570238Y-10783333D01*
X285446428Y-10845238D01*
X285384523Y-10907142D01*
X285322619Y-11030952D01*
D10*
D11*
X60000000Y-198007200D02*
X60000000Y-200007200D01*
D10*
D11*
X110000000Y-198007200D02*
X110000000Y-200007200D01*
D10*
D11*
X160000000Y-198007200D02*
X160000000Y-200007200D01*
D10*
D11*
X210000000Y-198007200D02*
X210000000Y-200007200D01*
D10*
D11*
X260000000Y-198007200D02*
X260000000Y-200007200D01*
D10*
D11*
X36065476Y-199595295D02*
X35322619Y-199595295D01*
X35694047Y-199595295D02*
X35694047Y-198295295D01*
X35570238Y-198481009D01*
X35446428Y-198604819D01*
X35322619Y-198666723D01*
D10*
D11*
X85322619Y-198419104D02*
X85384523Y-198357200D01*
X85508333Y-198295295D01*
X85817857Y-198295295D01*
X85941666Y-198357200D01*
X86003571Y-198419104D01*
X86065476Y-198542914D01*
X86065476Y-198666723D01*
X86003571Y-198852438D01*
X85260714Y-199595295D01*
X86065476Y-199595295D01*
D10*
D11*
X135260714Y-198295295D02*
X136065476Y-198295295D01*
X135632142Y-198790533D01*
X135817857Y-198790533D01*
X135941666Y-198852438D01*
X136003571Y-198914342D01*
X136065476Y-199038152D01*
X136065476Y-199347676D01*
X136003571Y-199471485D01*
X135941666Y-199533390D01*
X135817857Y-199595295D01*
X135446428Y-199595295D01*
X135322619Y-199533390D01*
X135260714Y-199471485D01*
D10*
D11*
X185941666Y-198728628D02*
X185941666Y-199595295D01*
X185632142Y-198233390D02*
X185322619Y-199161961D01*
X186127380Y-199161961D01*
D10*
D11*
X236003571Y-198295295D02*
X235384523Y-198295295D01*
X235322619Y-198914342D01*
X235384523Y-198852438D01*
X235508333Y-198790533D01*
X235817857Y-198790533D01*
X235941666Y-198852438D01*
X236003571Y-198914342D01*
X236065476Y-199038152D01*
X236065476Y-199347676D01*
X236003571Y-199471485D01*
X235941666Y-199533390D01*
X235817857Y-199595295D01*
X235508333Y-199595295D01*
X235384523Y-199533390D01*
X235322619Y-199471485D01*
D10*
D11*
X285941666Y-198295295D02*
X285694047Y-198295295D01*
X285570238Y-198357200D01*
X285508333Y-198419104D01*
X285384523Y-198604819D01*
X285322619Y-198852438D01*
X285322619Y-199347676D01*
X285384523Y-199471485D01*
X285446428Y-199533390D01*
X285570238Y-199595295D01*
X285817857Y-199595295D01*
X285941666Y-199533390D01*
X286003571Y-199471485D01*
X286065476Y-199347676D01*
X286065476Y-199038152D01*
X286003571Y-198914342D01*
X285941666Y-198852438D01*
X285817857Y-198790533D01*
X285570238Y-198790533D01*
X285446428Y-198852438D01*
X285384523Y-198914342D01*
X285322619Y-199038152D01*
D10*
D11*
X10000000Y-60000000D02*
X12000000Y-60000000D01*
D10*
D11*
X10000000Y-110000000D02*
X12000000Y-110000000D01*
D10*
D11*
X10000000Y-160000000D02*
X12000000Y-160000000D01*
D10*
D11*
X10690476Y-35216666D02*
X11309523Y-35216666D01*
X10566666Y-35588095D02*
X11000000Y-34288095D01*
X11433333Y-35588095D01*
D10*
D11*
X11092857Y-84907142D02*
X11278571Y-84969047D01*
X11340476Y-85030952D01*
X11402380Y-85154761D01*
X11402380Y-85340476D01*
X11340476Y-85464285D01*
X11278571Y-85526190D01*
X11154761Y-85588095D01*
X10659523Y-85588095D01*
X10659523Y-84288095D01*
X11092857Y-84288095D01*
X11216666Y-84350000D01*
X11278571Y-84411904D01*
X11340476Y-84535714D01*
X11340476Y-84659523D01*
X11278571Y-84783333D01*
X11216666Y-84845238D01*
X11092857Y-84907142D01*
X10659523Y-84907142D01*
D10*
D11*
X11402380Y-135464285D02*
X11340476Y-135526190D01*
X11154761Y-135588095D01*
X11030952Y-135588095D01*
X10845238Y-135526190D01*
X10721428Y-135402380D01*
X10659523Y-135278571D01*
X10597619Y-135030952D01*
X10597619Y-134845238D01*
X10659523Y-134597619D01*
X10721428Y-134473809D01*
X10845238Y-134350000D01*
X11030952Y-134288095D01*
X11154761Y-134288095D01*
X11340476Y-134350000D01*
X11402380Y-134411904D01*
D10*
D11*
X10659523Y-185588095D02*
X10659523Y-184288095D01*
X10969047Y-184288095D01*
X11154761Y-184350000D01*
X11278571Y-184473809D01*
X11340476Y-184597619D01*
X11402380Y-184845238D01*
X11402380Y-185030952D01*
X11340476Y-185278571D01*
X11278571Y-185402380D01*
X11154761Y-185526190D01*
X10969047Y-185588095D01*
X10659523Y-185588095D01*
D10*
D11*
X287002200Y-60000000D02*
X285002200Y-60000000D01*
D10*
D11*
X287002200Y-110000000D02*
X285002200Y-110000000D01*
D10*
D11*
X287002200Y-160000000D02*
X285002200Y-160000000D01*
D10*
D11*
X285692676Y-35216666D02*
X286311723Y-35216666D01*
X285568866Y-35588095D02*
X286002200Y-34288095D01*
X286435533Y-35588095D01*
D10*
D11*
X286095057Y-84907142D02*
X286280771Y-84969047D01*
X286342676Y-85030952D01*
X286404580Y-85154761D01*
X286404580Y-85340476D01*
X286342676Y-85464285D01*
X286280771Y-85526190D01*
X286156961Y-85588095D01*
X285661723Y-85588095D01*
X285661723Y-84288095D01*
X286095057Y-84288095D01*
X286218866Y-84350000D01*
X286280771Y-84411904D01*
X286342676Y-84535714D01*
X286342676Y-84659523D01*
X286280771Y-84783333D01*
X286218866Y-84845238D01*
X286095057Y-84907142D01*
X285661723Y-84907142D01*
D10*
D11*
X286404580Y-135464285D02*
X286342676Y-135526190D01*
X286156961Y-135588095D01*
X286033152Y-135588095D01*
X285847438Y-135526190D01*
X285723628Y-135402380D01*
X285661723Y-135278571D01*
X285599819Y-135030952D01*
X285599819Y-134845238D01*
X285661723Y-134597619D01*
X285723628Y-134473809D01*
X285847438Y-134350000D01*
X286033152Y-134288095D01*
X286156961Y-134288095D01*
X286342676Y-134350000D01*
X286404580Y-134411904D01*
D10*
D11*
X285661723Y-185588095D02*
X285661723Y-184288095D01*
X285971247Y-184288095D01*
X286156961Y-184350000D01*
X286280771Y-184473809D01*
X286342676Y-184597619D01*
X286404580Y-184845238D01*
X286404580Y-185030952D01*
X286342676Y-185278571D01*
X286280771Y-185402380D01*
X286156961Y-185526190D01*
X285971247Y-185588095D01*
X285661723Y-185588095D01*
D10*
D11*
X200434342Y-193785771D02*
X200434342Y-192285771D01*
X200791485Y-192285771D01*
X201005771Y-192357200D01*
X201148628Y-192500057D01*
X201220057Y-192642914D01*
X201291485Y-192928628D01*
X201291485Y-193142914D01*
X201220057Y-193428628D01*
X201148628Y-193571485D01*
X201005771Y-193714342D01*
X200791485Y-193785771D01*
X200434342Y-193785771D01*
X202577200Y-193785771D02*
X202577200Y-193000057D01*
X202505771Y-192857200D01*
X202362914Y-192785771D01*
X202077200Y-192785771D01*
X201934342Y-192857200D01*
X202577200Y-193714342D02*
X202434342Y-193785771D01*
X202077200Y-193785771D01*
X201934342Y-193714342D01*
X201862914Y-193571485D01*
X201862914Y-193428628D01*
X201934342Y-193285771D01*
X202077200Y-193214342D01*
X202434342Y-193214342D01*
X202577200Y-193142914D01*
X203077200Y-192785771D02*
X203648628Y-192785771D01*
X203291485Y-192285771D02*
X203291485Y-193571485D01*
X203362914Y-193714342D01*
X203505771Y-193785771D01*
X203648628Y-193785771D01*
X204720057Y-193714342D02*
X204577200Y-193785771D01*
X204291485Y-193785771D01*
X204148628Y-193714342D01*
X204077200Y-193571485D01*
X204077200Y-193000057D01*
X204148628Y-192857200D01*
X204291485Y-192785771D01*
X204577200Y-192785771D01*
X204720057Y-192857200D01*
X204791485Y-193000057D01*
X204791485Y-193142914D01*
X204077200Y-193285771D01*
X205434342Y-193642914D02*
X205505771Y-193714342D01*
X205434342Y-193785771D01*
X205362914Y-193714342D01*
X205434342Y-193642914D01*
X205434342Y-193785771D01*
X205434342Y-192857200D02*
X205505771Y-192928628D01*
X205434342Y-193000057D01*
X205362914Y-192928628D01*
X205434342Y-192857200D01*
X205434342Y-193000057D01*
D10*
D11*
X177002200Y-194507200D02*
X285002200Y-194507200D01*
D10*
D11*
X178434342Y-196585771D02*
X178434342Y-195085771D01*
X179291485Y-196585771D02*
X178648628Y-195728628D01*
X179291485Y-195085771D02*
X178434342Y-195942914D01*
X179934342Y-196585771D02*
X179934342Y-195585771D01*
X179934342Y-195085771D02*
X179862914Y-195157200D01*
X179934342Y-195228628D01*
X180005771Y-195157200D01*
X179934342Y-195085771D01*
X179934342Y-195228628D01*
X181505771Y-196442914D02*
X181434342Y-196514342D01*
X181220057Y-196585771D01*
X181077200Y-196585771D01*
X180862914Y-196514342D01*
X180720057Y-196371485D01*
X180648628Y-196228628D01*
X180577200Y-195942914D01*
X180577200Y-195728628D01*
X180648628Y-195442914D01*
X180720057Y-195300057D01*
X180862914Y-195157200D01*
X181077200Y-195085771D01*
X181220057Y-195085771D01*
X181434342Y-195157200D01*
X181505771Y-195228628D01*
X182791485Y-196585771D02*
X182791485Y-195800057D01*
X182720057Y-195657200D01*
X182577200Y-195585771D01*
X182291485Y-195585771D01*
X182148628Y-195657200D01*
X182791485Y-196514342D02*
X182648628Y-196585771D01*
X182291485Y-196585771D01*
X182148628Y-196514342D01*
X182077200Y-196371485D01*
X182077200Y-196228628D01*
X182148628Y-196085771D01*
X182291485Y-196014342D01*
X182648628Y-196014342D01*
X182791485Y-195942914D01*
X184148628Y-196585771D02*
X184148628Y-195085771D01*
X184148628Y-196514342D02*
X184005771Y-196585771D01*
X183720057Y-196585771D01*
X183577200Y-196514342D01*
X183505771Y-196442914D01*
X183434342Y-196300057D01*
X183434342Y-195871485D01*
X183505771Y-195728628D01*
X183577200Y-195657200D01*
X183720057Y-195585771D01*
X184005771Y-195585771D01*
X184148628Y-195657200D01*
X186005771Y-195800057D02*
X186505771Y-195800057D01*
X186720057Y-196585771D02*
X186005771Y-196585771D01*
X186005771Y-195085771D01*
X186720057Y-195085771D01*
X187362914Y-196442914D02*
X187434342Y-196514342D01*
X187362914Y-196585771D01*
X187291485Y-196514342D01*
X187362914Y-196442914D01*
X187362914Y-196585771D01*
X188077200Y-196585771D02*
X188077200Y-195085771D01*
X188434342Y-195085771D01*
X188648628Y-195157200D01*
X188791485Y-195300057D01*
X188862914Y-195442914D01*
X188934342Y-195728628D01*
X188934342Y-195942914D01*
X188862914Y-196228628D01*
X188791485Y-196371485D01*
X188648628Y-196514342D01*
X188434342Y-196585771D01*
X188077200Y-196585771D01*
X189577200Y-196442914D02*
X189648628Y-196514342D01*
X189577200Y-196585771D01*
X189505771Y-196514342D01*
X189577200Y-196442914D01*
X189577200Y-196585771D01*
X190220057Y-196157200D02*
X190934342Y-196157200D01*
X190077200Y-196585771D02*
X190577200Y-195085771D01*
X191077200Y-196585771D01*
X191577200Y-196442914D02*
X191648628Y-196514342D01*
X191577200Y-196585771D01*
X191505771Y-196514342D01*
X191577200Y-196442914D01*
X191577200Y-196585771D01*
X194577200Y-196585771D02*
X194577200Y-195085771D01*
X194720057Y-196014342D02*
X195148628Y-196585771D01*
X195148628Y-195585771D02*
X194577200Y-196157200D01*
X195791485Y-196585771D02*
X195791485Y-195585771D01*
X195791485Y-195085771D02*
X195720057Y-195157200D01*
X195791485Y-195228628D01*
X195862914Y-195157200D01*
X195791485Y-195085771D01*
X195791485Y-195228628D01*
X197148628Y-196514342D02*
X197005771Y-196585771D01*
X196720057Y-196585771D01*
X196577200Y-196514342D01*
X196505771Y-196442914D01*
X196434342Y-196300057D01*
X196434342Y-195871485D01*
X196505771Y-195728628D01*
X196577200Y-195657200D01*
X196720057Y-195585771D01*
X197005771Y-195585771D01*
X197148628Y-195657200D01*
X198434342Y-196585771D02*
X198434342Y-195800057D01*
X198362914Y-195657200D01*
X198220057Y-195585771D01*
X197934342Y-195585771D01*
X197791485Y-195657200D01*
X198434342Y-196514342D02*
X198291485Y-196585771D01*
X197934342Y-196585771D01*
X197791485Y-196514342D01*
X197720057Y-196371485D01*
X197720057Y-196228628D01*
X197791485Y-196085771D01*
X197934342Y-196014342D01*
X198291485Y-196014342D01*
X198434342Y-195942914D01*
X199791485Y-196585771D02*
X199791485Y-195085771D01*
X199791485Y-196514342D02*
X199648628Y-196585771D01*
X199362914Y-196585771D01*
X199220057Y-196514342D01*
X199148628Y-196442914D01*
X199077200Y-196300057D01*
X199077200Y-195871485D01*
X199148628Y-195728628D01*
X199220057Y-195657200D01*
X199362914Y-195585771D01*
X199648628Y-195585771D01*
X199791485Y-195657200D01*
X202077200Y-197157200D02*
X202005771Y-197085771D01*
X201862914Y-196871485D01*
X201791485Y-196728628D01*
X201720057Y-196514342D01*
X201648628Y-196157200D01*
X201648628Y-195871485D01*
X201720057Y-195514342D01*
X201791485Y-195300057D01*
X201862914Y-195157200D01*
X202005771Y-194942914D01*
X202077200Y-194871485D01*
X203362914Y-195085771D02*
X202648628Y-195085771D01*
X202577200Y-195800057D01*
X202648628Y-195728628D01*
X202791485Y-195657200D01*
X203148628Y-195657200D01*
X203291485Y-195728628D01*
X203362914Y-195800057D01*
X203434342Y-195942914D01*
X203434342Y-196300057D01*
X203362914Y-196442914D01*
X203291485Y-196514342D01*
X203148628Y-196585771D01*
X202791485Y-196585771D01*
X202648628Y-196514342D01*
X202577200Y-196442914D01*
X204077200Y-196442914D02*
X204148628Y-196514342D01*
X204077200Y-196585771D01*
X204005771Y-196514342D01*
X204077200Y-196442914D01*
X204077200Y-196585771D01*
X205577200Y-196585771D02*
X204720057Y-196585771D01*
X205148628Y-196585771D02*
X205148628Y-195085771D01*
X205005771Y-195300057D01*
X204862914Y-195442914D01*
X204720057Y-195514342D01*
X206220057Y-196442914D02*
X206291485Y-196514342D01*
X206220057Y-196585771D01*
X206148628Y-196514342D01*
X206220057Y-196442914D01*
X206220057Y-196585771D01*
X207648628Y-195085771D02*
X206934342Y-195085771D01*
X206862914Y-195800057D01*
X206934342Y-195728628D01*
X207077200Y-195657200D01*
X207434342Y-195657200D01*
X207577200Y-195728628D01*
X207648628Y-195800057D01*
X207720057Y-195942914D01*
X207720057Y-196300057D01*
X207648628Y-196442914D01*
X207577200Y-196514342D01*
X207434342Y-196585771D01*
X207077200Y-196585771D01*
X206934342Y-196514342D01*
X206862914Y-196442914D01*
X208220057Y-197157200D02*
X208291485Y-197085771D01*
X208434342Y-196871485D01*
X208505771Y-196728628D01*
X208577200Y-196514342D01*
X208648628Y-196157200D01*
X208648628Y-195871485D01*
X208577200Y-195514342D01*
X208505771Y-195300057D01*
X208434342Y-195157200D01*
X208291485Y-194942914D01*
X208220057Y-194871485D01*
X209362914Y-196014342D02*
X210505771Y-196014342D01*
X211077200Y-195085771D02*
X212005771Y-195085771D01*
X211505771Y-195657200D01*
X211720057Y-195657200D01*
X211862914Y-195728628D01*
X211934342Y-195800057D01*
X212005771Y-195942914D01*
X212005771Y-196300057D01*
X211934342Y-196442914D01*
X211862914Y-196514342D01*
X211720057Y-196585771D01*
X211291485Y-196585771D01*
X211148628Y-196514342D01*
X211077200Y-196442914D01*
D10*
D11*
X177002200Y-191507200D02*
X285002200Y-191507200D01*
D10*
D12*
X264411485Y-193785771D02*
X263911485Y-193071485D01*
X263554342Y-193785771D02*
X263554342Y-192285771D01*
X264125771Y-192285771D01*
X264268628Y-192357200D01*
X264340057Y-192428628D01*
X264411485Y-192571485D01*
X264411485Y-192785771D01*
X264340057Y-192928628D01*
X264268628Y-193000057D01*
X264125771Y-193071485D01*
X263554342Y-193071485D01*
X265625771Y-193714342D02*
X265482914Y-193785771D01*
X265197200Y-193785771D01*
X265054342Y-193714342D01*
X264982914Y-193571485D01*
X264982914Y-193000057D01*
X265054342Y-192857200D01*
X265197200Y-192785771D01*
X265482914Y-192785771D01*
X265625771Y-192857200D01*
X265697200Y-193000057D01*
X265697200Y-193142914D01*
X264982914Y-193285771D01*
X266197200Y-192785771D02*
X266554342Y-193785771D01*
X266911485Y-192785771D01*
X267482914Y-193642914D02*
X267554342Y-193714342D01*
X267482914Y-193785771D01*
X267411485Y-193714342D01*
X267482914Y-193642914D01*
X267482914Y-193785771D01*
X267482914Y-192857200D02*
X267554342Y-192928628D01*
X267482914Y-193000057D01*
X267411485Y-192928628D01*
X267482914Y-192857200D01*
X267482914Y-193000057D01*
D10*
D11*
X178362914Y-193714342D02*
X178577200Y-193785771D01*
X178934342Y-193785771D01*
X179077200Y-193714342D01*
X179148628Y-193642914D01*
X179220057Y-193500057D01*
X179220057Y-193357200D01*
X179148628Y-193214342D01*
X179077200Y-193142914D01*
X178934342Y-193071485D01*
X178648628Y-193000057D01*
X178505771Y-192928628D01*
X178434342Y-192857200D01*
X178362914Y-192714342D01*
X178362914Y-192571485D01*
X178434342Y-192428628D01*
X178505771Y-192357200D01*
X178648628Y-192285771D01*
X179005771Y-192285771D01*
X179220057Y-192357200D01*
X179862914Y-193785771D02*
X179862914Y-192785771D01*
X179862914Y-192285771D02*
X179791485Y-192357200D01*
X179862914Y-192428628D01*
X179934342Y-192357200D01*
X179862914Y-192285771D01*
X179862914Y-192428628D01*
X180434342Y-192785771D02*
X181220057Y-192785771D01*
X180434342Y-193785771D01*
X181220057Y-193785771D01*
X182362914Y-193714342D02*
X182220057Y-193785771D01*
X181934342Y-193785771D01*
X181791485Y-193714342D01*
X181720057Y-193571485D01*
X181720057Y-193000057D01*
X181791485Y-192857200D01*
X181934342Y-192785771D01*
X182220057Y-192785771D01*
X182362914Y-192857200D01*
X182434342Y-193000057D01*
X182434342Y-193142914D01*
X181720057Y-193285771D01*
X183077200Y-193642914D02*
X183148628Y-193714342D01*
X183077200Y-193785771D01*
X183005771Y-193714342D01*
X183077200Y-193642914D01*
X183077200Y-193785771D01*
X183077200Y-192857200D02*
X183148628Y-192928628D01*
X183077200Y-193000057D01*
X183005771Y-192928628D01*
X183077200Y-192857200D01*
X183077200Y-193000057D01*
X184862914Y-193357200D02*
X185577200Y-193357200D01*
X184720057Y-193785771D02*
X185220057Y-192285771D01*
X185720057Y-193785771D01*
X186862914Y-192785771D02*
X186862914Y-193785771D01*
X186505771Y-192214342D02*
X186148628Y-193285771D01*
X187077200Y-193285771D01*
D10*
D11*
X263434342Y-196585771D02*
X263434342Y-195085771D01*
X264791485Y-196585771D02*
X264791485Y-195085771D01*
X264791485Y-196514342D02*
X264648628Y-196585771D01*
X264362914Y-196585771D01*
X264220057Y-196514342D01*
X264148628Y-196442914D01*
X264077200Y-196300057D01*
X264077200Y-195871485D01*
X264148628Y-195728628D01*
X264220057Y-195657200D01*
X264362914Y-195585771D01*
X264648628Y-195585771D01*
X264791485Y-195657200D01*
X265505771Y-196442914D02*
X265577200Y-196514342D01*
X265505771Y-196585771D01*
X265434342Y-196514342D01*
X265505771Y-196442914D01*
X265505771Y-196585771D01*
X265505771Y-195657200D02*
X265577200Y-195728628D01*
X265505771Y-195800057D01*
X265434342Y-195728628D01*
X265505771Y-195657200D01*
X265505771Y-195800057D01*
X268148628Y-196585771D02*
X267291485Y-196585771D01*
X267720057Y-196585771D02*
X267720057Y-195085771D01*
X267577200Y-195300057D01*
X267434342Y-195442914D01*
X267291485Y-195514342D01*
X269862914Y-195014342D02*
X268577200Y-196942914D01*
X271148628Y-196585771D02*
X270291485Y-196585771D01*
X270720057Y-196585771D02*
X270720057Y-195085771D01*
X270577200Y-195300057D01*
X270434342Y-195442914D01*
X270291485Y-195514342D01*
D10*
D11*
X177002200Y-187507200D02*
X285002200Y-187507200D01*
D10*
D13*
X178714580Y-188211961D02*
X179857438Y-188211961D01*
X179036009Y-190211961D02*
X179286009Y-188211961D01*
X180274104Y-190211961D02*
X180440771Y-188878628D01*
X180524104Y-188211961D02*
X180416961Y-188307200D01*
X180500295Y-188402438D01*
X180607438Y-188307200D01*
X180524104Y-188211961D01*
X180500295Y-188402438D01*
X181107438Y-188878628D02*
X181869342Y-188878628D01*
X181476485Y-188211961D02*
X181262200Y-189926247D01*
X181333628Y-190116723D01*
X181512200Y-190211961D01*
X181702676Y-190211961D01*
X182655057Y-190211961D02*
X182476485Y-190116723D01*
X182405057Y-189926247D01*
X182619342Y-188211961D01*
X184190771Y-190116723D02*
X183988390Y-190211961D01*
X183607438Y-190211961D01*
X183428866Y-190116723D01*
X183357438Y-189926247D01*
X183452676Y-189164342D01*
X183571723Y-188973866D01*
X183774104Y-188878628D01*
X184155057Y-188878628D01*
X184333628Y-188973866D01*
X184405057Y-189164342D01*
X184381247Y-189354819D01*
X183405057Y-189545295D01*
X185155057Y-190021485D02*
X185238390Y-190116723D01*
X185131247Y-190211961D01*
X185047914Y-190116723D01*
X185155057Y-190021485D01*
X185131247Y-190211961D01*
X185286009Y-188973866D02*
X185369342Y-189069104D01*
X185262200Y-189164342D01*
X185178866Y-189069104D01*
X185286009Y-188973866D01*
X185262200Y-189164342D01*
D10*
D11*
X178934342Y-185600057D02*
X178434342Y-185600057D01*
X178434342Y-186385771D02*
X178434342Y-184885771D01*
X179148628Y-184885771D01*
X179720057Y-186385771D02*
X179720057Y-185385771D01*
X179720057Y-184885771D02*
X179648628Y-184957200D01*
X179720057Y-185028628D01*
X179791485Y-184957200D01*
X179720057Y-184885771D01*
X179720057Y-185028628D01*
X180648628Y-186385771D02*
X180505771Y-186314342D01*
X180434342Y-186171485D01*
X180434342Y-184885771D01*
X181791485Y-186314342D02*
X181648628Y-186385771D01*
X181362914Y-186385771D01*
X181220057Y-186314342D01*
X181148628Y-186171485D01*
X181148628Y-185600057D01*
X181220057Y-185457200D01*
X181362914Y-185385771D01*
X181648628Y-185385771D01*
X181791485Y-185457200D01*
X181862914Y-185600057D01*
X181862914Y-185742914D01*
X181148628Y-185885771D01*
X182505771Y-186242914D02*
X182577200Y-186314342D01*
X182505771Y-186385771D01*
X182434342Y-186314342D01*
X182505771Y-186242914D01*
X182505771Y-186385771D01*
X182505771Y-185457200D02*
X182577200Y-185528628D01*
X182505771Y-185600057D01*
X182434342Y-185528628D01*
X182505771Y-185457200D01*
X182505771Y-185600057D01*
X184148628Y-184885771D02*
X184648628Y-186385771D01*
X185148628Y-184885771D01*
X186220057Y-186314342D02*
X186077200Y-186385771D01*
X185791485Y-186385771D01*
X185648628Y-186314342D01*
X185577200Y-186171485D01*
X185577200Y-185600057D01*
X185648628Y-185457200D01*
X185791485Y-185385771D01*
X186077200Y-185385771D01*
X186220057Y-185457200D01*
X186291485Y-185600057D01*
X186291485Y-185742914D01*
X185577200Y-185885771D01*
X186934342Y-185385771D02*
X186934342Y-186385771D01*
X186934342Y-185528628D02*
X187005771Y-185457200D01*
X187148628Y-185385771D01*
X187362914Y-185385771D01*
X187505771Y-185457200D01*
X187577200Y-185600057D01*
X187577200Y-186385771D01*
X188077200Y-185385771D02*
X188648628Y-185385771D01*
X188291485Y-184885771D02*
X188291485Y-186171485D01*
X188362914Y-186314342D01*
X188505771Y-186385771D01*
X188648628Y-186385771D01*
X189148628Y-186385771D02*
X189148628Y-185385771D01*
X189148628Y-184885771D02*
X189077200Y-184957200D01*
X189148628Y-185028628D01*
X189220057Y-184957200D01*
X189148628Y-184885771D01*
X189148628Y-185028628D01*
X190077200Y-186385771D02*
X189934342Y-186314342D01*
X189862914Y-186171485D01*
X189862914Y-184885771D01*
X191291485Y-186385771D02*
X191291485Y-185600057D01*
X191220057Y-185457200D01*
X191077200Y-185385771D01*
X190791485Y-185385771D01*
X190648628Y-185457200D01*
X191291485Y-186314342D02*
X191148628Y-186385771D01*
X190791485Y-186385771D01*
X190648628Y-186314342D01*
X190577200Y-186171485D01*
X190577200Y-186028628D01*
X190648628Y-185885771D01*
X190791485Y-185814342D01*
X191148628Y-185814342D01*
X191291485Y-185742914D01*
X191791485Y-185385771D02*
X192362914Y-185385771D01*
X192005771Y-184885771D02*
X192005771Y-186171485D01*
X192077200Y-186314342D01*
X192220057Y-186385771D01*
X192362914Y-186385771D01*
X193077200Y-186385771D02*
X192934342Y-186314342D01*
X192862914Y-186242914D01*
X192791485Y-186100057D01*
X192791485Y-185671485D01*
X192862914Y-185528628D01*
X192934342Y-185457200D01*
X193077200Y-185385771D01*
X193291485Y-185385771D01*
X193434342Y-185457200D01*
X193505771Y-185528628D01*
X193577200Y-185671485D01*
X193577200Y-186100057D01*
X193505771Y-186242914D01*
X193434342Y-186314342D01*
X193291485Y-186385771D01*
X193077200Y-186385771D01*
X194220057Y-186385771D02*
X194220057Y-185385771D01*
X194220057Y-185671485D02*
X194291485Y-185528628D01*
X194362914Y-185457200D01*
X194505771Y-185385771D01*
X194648628Y-185385771D01*
X194791485Y-186528628D02*
X195934342Y-186528628D01*
X196291485Y-186385771D02*
X196291485Y-184885771D01*
X196791485Y-185957200D01*
X197291485Y-184885771D01*
X197291485Y-186385771D01*
X198220057Y-186385771D02*
X198077200Y-186314342D01*
X198005771Y-186242914D01*
X197934342Y-186100057D01*
X197934342Y-185671485D01*
X198005771Y-185528628D01*
X198077200Y-185457200D01*
X198220057Y-185385771D01*
X198434342Y-185385771D01*
X198577200Y-185457200D01*
X198648628Y-185528628D01*
X198720057Y-185671485D01*
X198720057Y-186100057D01*
X198648628Y-186242914D01*
X198577200Y-186314342D01*
X198434342Y-186385771D01*
X198220057Y-186385771D01*
X199362914Y-185385771D02*
X199362914Y-186385771D01*
X199362914Y-185528628D02*
X199434342Y-185457200D01*
X199577200Y-185385771D01*
X199791485Y-185385771D01*
X199934342Y-185457200D01*
X200005771Y-185600057D01*
X200005771Y-186385771D01*
X200720057Y-186385771D02*
X200720057Y-185385771D01*
X200720057Y-184885771D02*
X200648628Y-184957200D01*
X200720057Y-185028628D01*
X200791485Y-184957200D01*
X200720057Y-184885771D01*
X200720057Y-185028628D01*
X201220057Y-185385771D02*
X201791485Y-185385771D01*
X201434342Y-184885771D02*
X201434342Y-186171485D01*
X201505771Y-186314342D01*
X201648628Y-186385771D01*
X201791485Y-186385771D01*
X202505771Y-186385771D02*
X202362914Y-186314342D01*
X202291485Y-186242914D01*
X202220057Y-186100057D01*
X202220057Y-185671485D01*
X202291485Y-185528628D01*
X202362914Y-185457200D01*
X202505771Y-185385771D01*
X202720057Y-185385771D01*
X202862914Y-185457200D01*
X202934342Y-185528628D01*
X203005771Y-185671485D01*
X203005771Y-186100057D01*
X202934342Y-186242914D01*
X202862914Y-186314342D01*
X202720057Y-186385771D01*
X202505771Y-186385771D01*
X203648628Y-186385771D02*
X203648628Y-185385771D01*
X203648628Y-185671485D02*
X203720057Y-185528628D01*
X203791485Y-185457200D01*
X203934342Y-185385771D01*
X204077200Y-185385771D01*
X204577200Y-186242914D02*
X204648628Y-186314342D01*
X204577200Y-186385771D01*
X204505771Y-186314342D01*
X204577200Y-186242914D01*
X204577200Y-186385771D01*
X205291485Y-186385771D02*
X205291485Y-184885771D01*
X205434342Y-185814342D02*
X205862914Y-186385771D01*
X205862914Y-185385771D02*
X205291485Y-185957200D01*
X206505771Y-186385771D02*
X206505771Y-185385771D01*
X206505771Y-184885771D02*
X206434342Y-184957200D01*
X206505771Y-185028628D01*
X206577200Y-184957200D01*
X206505771Y-184885771D01*
X206505771Y-185028628D01*
X207862914Y-186314342D02*
X207720057Y-186385771D01*
X207434342Y-186385771D01*
X207291485Y-186314342D01*
X207220057Y-186242914D01*
X207148628Y-186100057D01*
X207148628Y-185671485D01*
X207220057Y-185528628D01*
X207291485Y-185457200D01*
X207434342Y-185385771D01*
X207720057Y-185385771D01*
X207862914Y-185457200D01*
X209148628Y-186385771D02*
X209148628Y-185600057D01*
X209077200Y-185457200D01*
X208934342Y-185385771D01*
X208648628Y-185385771D01*
X208505771Y-185457200D01*
X209148628Y-186314342D02*
X209005771Y-186385771D01*
X208648628Y-186385771D01*
X208505771Y-186314342D01*
X208434342Y-186171485D01*
X208434342Y-186028628D01*
X208505771Y-185885771D01*
X208648628Y-185814342D01*
X209005771Y-185814342D01*
X209148628Y-185742914D01*
X210505771Y-186385771D02*
X210505771Y-184885771D01*
X210505771Y-186314342D02*
X210362914Y-186385771D01*
X210077200Y-186385771D01*
X209934342Y-186314342D01*
X209862914Y-186242914D01*
X209791485Y-186100057D01*
X209791485Y-185671485D01*
X209862914Y-185528628D01*
X209934342Y-185457200D01*
X210077200Y-185385771D01*
X210362914Y-185385771D01*
X210505771Y-185457200D01*
X210862914Y-186528628D02*
X212005771Y-186528628D01*
X212362914Y-185385771D02*
X212362914Y-186885771D01*
X212362914Y-185457200D02*
X212505771Y-185385771D01*
X212791485Y-185385771D01*
X212934342Y-185457200D01*
X213005771Y-185528628D01*
X213077200Y-185671485D01*
X213077200Y-186100057D01*
X213005771Y-186242914D01*
X212934342Y-186314342D01*
X212791485Y-186385771D01*
X212505771Y-186385771D01*
X212362914Y-186314342D01*
X214362914Y-186314342D02*
X214220057Y-186385771D01*
X213934342Y-186385771D01*
X213791485Y-186314342D01*
X213720057Y-186242914D01*
X213648628Y-186100057D01*
X213648628Y-185671485D01*
X213720057Y-185528628D01*
X213791485Y-185457200D01*
X213934342Y-185385771D01*
X214220057Y-185385771D01*
X214362914Y-185457200D01*
X215005771Y-186385771D02*
X215005771Y-184885771D01*
X215005771Y-185457200D02*
X215148628Y-185385771D01*
X215434342Y-185385771D01*
X215577200Y-185457200D01*
X215648628Y-185528628D01*
X215720057Y-185671485D01*
X215720057Y-186100057D01*
X215648628Y-186242914D01*
X215577200Y-186314342D01*
X215434342Y-186385771D01*
X215148628Y-186385771D01*
X215005771Y-186314342D01*
D10*
D11*
X177002200Y-181507200D02*
X285002200Y-181507200D01*
D10*
D11*
X178362914Y-183614342D02*
X178577200Y-183685771D01*
X178934342Y-183685771D01*
X179077200Y-183614342D01*
X179148628Y-183542914D01*
X179220057Y-183400057D01*
X179220057Y-183257200D01*
X179148628Y-183114342D01*
X179077200Y-183042914D01*
X178934342Y-182971485D01*
X178648628Y-182900057D01*
X178505771Y-182828628D01*
X178434342Y-182757200D01*
X178362914Y-182614342D01*
X178362914Y-182471485D01*
X178434342Y-182328628D01*
X178505771Y-182257200D01*
X178648628Y-182185771D01*
X179005771Y-182185771D01*
X179220057Y-182257200D01*
X179862914Y-183685771D02*
X179862914Y-182185771D01*
X180505771Y-183685771D02*
X180505771Y-182900057D01*
X180434342Y-182757200D01*
X180291485Y-182685771D01*
X180077200Y-182685771D01*
X179934342Y-182757200D01*
X179862914Y-182828628D01*
X181791485Y-183614342D02*
X181648628Y-183685771D01*
X181362914Y-183685771D01*
X181220057Y-183614342D01*
X181148628Y-183471485D01*
X181148628Y-182900057D01*
X181220057Y-182757200D01*
X181362914Y-182685771D01*
X181648628Y-182685771D01*
X181791485Y-182757200D01*
X181862914Y-182900057D01*
X181862914Y-183042914D01*
X181148628Y-183185771D01*
X183077200Y-183614342D02*
X182934342Y-183685771D01*
X182648628Y-183685771D01*
X182505771Y-183614342D01*
X182434342Y-183471485D01*
X182434342Y-182900057D01*
X182505771Y-182757200D01*
X182648628Y-182685771D01*
X182934342Y-182685771D01*
X183077200Y-182757200D01*
X183148628Y-182900057D01*
X183148628Y-183042914D01*
X182434342Y-183185771D01*
X183577200Y-182685771D02*
X184148628Y-182685771D01*
X183791485Y-182185771D02*
X183791485Y-183471485D01*
X183862914Y-183614342D01*
X184005771Y-183685771D01*
X184148628Y-183685771D01*
X184648628Y-183542914D02*
X184720057Y-183614342D01*
X184648628Y-183685771D01*
X184577200Y-183614342D01*
X184648628Y-183542914D01*
X184648628Y-183685771D01*
X184648628Y-182757200D02*
X184720057Y-182828628D01*
X184648628Y-182900057D01*
X184577200Y-182828628D01*
X184648628Y-182757200D01*
X184648628Y-182900057D01*
D10*
D11*
X197002200Y-191507200D02*
X197002200Y-194507200D01*
D10*
D11*
X261002200Y-191507200D02*
X261002200Y-198007200D01*
D10*
G36*
X54387610Y-102883335D02*
G01*
X54534109Y-102944017D01*
X54534110Y-102944018D01*
X54665958Y-103032116D01*
X54778084Y-103144242D01*
X54778085Y-103144244D01*
X54866183Y-103276091D01*
X54926865Y-103422590D01*
X54957800Y-103578113D01*
X54957800Y-103736687D01*
X54926865Y-103892210D01*
X54866183Y-104038709D01*
X54866182Y-104038710D01*
X54778084Y-104170558D01*
X54665958Y-104282684D01*
X54599585Y-104327033D01*
X54534109Y-104370783D01*
X54387610Y-104431465D01*
X54232087Y-104462400D01*
X54073513Y-104462400D01*
X53917990Y-104431465D01*
X53771491Y-104370783D01*
X53706015Y-104327033D01*
X53639642Y-104282684D01*
X53527516Y-104170558D01*
X53439418Y-104038710D01*
X53439417Y-104038709D01*
X53378735Y-103892210D01*
X53347800Y-103736687D01*
X53347800Y-103578113D01*
X53378735Y-103422590D01*
X53439417Y-103276091D01*
X53527515Y-103144244D01*
X53527516Y-103144242D01*
X53639642Y-103032116D01*
X53771490Y-102944018D01*
X53771491Y-102944017D01*
X53917990Y-102883335D01*
X54073513Y-102852400D01*
X54232087Y-102852400D01*
X54387610Y-102883335D01*
G37*
G36*
X79787610Y-102883335D02*
G01*
X79934109Y-102944017D01*
X79934110Y-102944018D01*
X80065958Y-103032116D01*
X80178084Y-103144242D01*
X80178085Y-103144244D01*
X80266183Y-103276091D01*
X80326865Y-103422590D01*
X80357800Y-103578113D01*
X80357800Y-103736687D01*
X80326865Y-103892210D01*
X80266183Y-104038709D01*
X80266182Y-104038710D01*
X80178084Y-104170558D01*
X80065958Y-104282684D01*
X79999585Y-104327033D01*
X79934109Y-104370783D01*
X79787610Y-104431465D01*
X79632087Y-104462400D01*
X79473513Y-104462400D01*
X79317990Y-104431465D01*
X79171491Y-104370783D01*
X79106015Y-104327033D01*
X79039642Y-104282684D01*
X78927516Y-104170558D01*
X78839418Y-104038710D01*
X78839417Y-104038709D01*
X78778735Y-103892210D01*
X78747800Y-103736687D01*
X78747800Y-103578113D01*
X78778735Y-103422590D01*
X78839417Y-103276091D01*
X78927515Y-103144244D01*
X78927516Y-103144242D01*
X79039642Y-103032116D01*
X79171490Y-102944018D01*
X79171491Y-102944017D01*
X79317990Y-102883335D01*
X79473513Y-102852400D01*
X79632087Y-102852400D01*
X79787610Y-102883335D01*
G37*
G36*
X51847610Y-102883335D02*
G01*
X51994109Y-102944017D01*
X51994110Y-102944018D01*
X52125958Y-103032116D01*
X52238084Y-103144242D01*
X52238085Y-103144244D01*
X52326183Y-103276091D01*
X52386865Y-103422590D01*
X52417800Y-103578113D01*
X52417800Y-103736687D01*
X52386865Y-103892210D01*
X52326183Y-104038709D01*
X52326182Y-104038710D01*
X52238084Y-104170558D01*
X52125958Y-104282684D01*
X52059585Y-104327033D01*
X51994109Y-104370783D01*
X51847610Y-104431465D01*
X51692087Y-104462400D01*
X51533513Y-104462400D01*
X51377990Y-104431465D01*
X51231491Y-104370783D01*
X51166015Y-104327033D01*
X51099642Y-104282684D01*
X50987516Y-104170558D01*
X50899418Y-104038710D01*
X50899417Y-104038709D01*
X50838735Y-103892210D01*
X50807800Y-103736687D01*
X50807800Y-103578113D01*
X50838735Y-103422590D01*
X50899417Y-103276091D01*
X50987515Y-103144244D01*
X50987516Y-103144242D01*
X51099642Y-103032116D01*
X51231490Y-102944018D01*
X51231491Y-102944017D01*
X51377990Y-102883335D01*
X51533513Y-102852400D01*
X51692087Y-102852400D01*
X51847610Y-102883335D01*
G37*
G36*
X100677800Y-104462400D02*
G01*
X99067800Y-104462400D01*
X99067800Y-102852400D01*
X100677800Y-102852400D01*
X100677800Y-104462400D01*
G37*
G36*
X95027610Y-102883335D02*
G01*
X95174109Y-102944017D01*
X95174110Y-102944018D01*
X95305958Y-103032116D01*
X95418084Y-103144242D01*
X95418085Y-103144244D01*
X95506183Y-103276091D01*
X95566865Y-103422590D01*
X95597800Y-103578113D01*
X95597800Y-103736687D01*
X95566865Y-103892210D01*
X95506183Y-104038709D01*
X95506182Y-104038710D01*
X95418084Y-104170558D01*
X95305958Y-104282684D01*
X95239585Y-104327033D01*
X95174109Y-104370783D01*
X95027610Y-104431465D01*
X94872087Y-104462400D01*
X94713513Y-104462400D01*
X94557990Y-104431465D01*
X94411491Y-104370783D01*
X94346015Y-104327033D01*
X94279642Y-104282684D01*
X94167516Y-104170558D01*
X94079418Y-104038710D01*
X94079417Y-104038709D01*
X94018735Y-103892210D01*
X93987800Y-103736687D01*
X93987800Y-103578113D01*
X94018735Y-103422590D01*
X94079417Y-103276091D01*
X94167515Y-103144244D01*
X94167516Y-103144242D01*
X94279642Y-103032116D01*
X94411490Y-102944018D01*
X94411491Y-102944017D01*
X94557990Y-102883335D01*
X94713513Y-102852400D01*
X94872087Y-102852400D01*
X95027610Y-102883335D01*
G37*
G36*
X92487610Y-102883335D02*
G01*
X92634109Y-102944017D01*
X92634110Y-102944018D01*
X92765958Y-103032116D01*
X92878084Y-103144242D01*
X92878085Y-103144244D01*
X92966183Y-103276091D01*
X93026865Y-103422590D01*
X93057800Y-103578113D01*
X93057800Y-103736687D01*
X93026865Y-103892210D01*
X92966183Y-104038709D01*
X92966182Y-104038710D01*
X92878084Y-104170558D01*
X92765958Y-104282684D01*
X92699585Y-104327033D01*
X92634109Y-104370783D01*
X92487610Y-104431465D01*
X92332087Y-104462400D01*
X92173513Y-104462400D01*
X92017990Y-104431465D01*
X91871491Y-104370783D01*
X91806015Y-104327033D01*
X91739642Y-104282684D01*
X91627516Y-104170558D01*
X91539418Y-104038710D01*
X91539417Y-104038709D01*
X91478735Y-103892210D01*
X91447800Y-103736687D01*
X91447800Y-103578113D01*
X91478735Y-103422590D01*
X91539417Y-103276091D01*
X91627515Y-103144244D01*
X91627516Y-103144242D01*
X91739642Y-103032116D01*
X91871490Y-102944018D01*
X91871491Y-102944017D01*
X92017990Y-102883335D01*
X92173513Y-102852400D01*
X92332087Y-102852400D01*
X92487610Y-102883335D01*
G37*
G36*
X89947610Y-102883335D02*
G01*
X90094109Y-102944017D01*
X90094110Y-102944018D01*
X90225958Y-103032116D01*
X90338084Y-103144242D01*
X90338085Y-103144244D01*
X90426183Y-103276091D01*
X90486865Y-103422590D01*
X90517800Y-103578113D01*
X90517800Y-103736687D01*
X90486865Y-103892210D01*
X90426183Y-104038709D01*
X90426182Y-104038710D01*
X90338084Y-104170558D01*
X90225958Y-104282684D01*
X90159585Y-104327033D01*
X90094109Y-104370783D01*
X89947610Y-104431465D01*
X89792087Y-104462400D01*
X89633513Y-104462400D01*
X89477990Y-104431465D01*
X89331491Y-104370783D01*
X89266015Y-104327033D01*
X89199642Y-104282684D01*
X89087516Y-104170558D01*
X88999418Y-104038710D01*
X88999417Y-104038709D01*
X88938735Y-103892210D01*
X88907800Y-103736687D01*
X88907800Y-103578113D01*
X88938735Y-103422590D01*
X88999417Y-103276091D01*
X89087515Y-103144244D01*
X89087516Y-103144242D01*
X89199642Y-103032116D01*
X89331490Y-102944018D01*
X89331491Y-102944017D01*
X89477990Y-102883335D01*
X89633513Y-102852400D01*
X89792087Y-102852400D01*
X89947610Y-102883335D01*
G37*
G36*
X87407610Y-102883335D02*
G01*
X87554109Y-102944017D01*
X87554110Y-102944018D01*
X87685958Y-103032116D01*
X87798084Y-103144242D01*
X87798085Y-103144244D01*
X87886183Y-103276091D01*
X87946865Y-103422590D01*
X87977800Y-103578113D01*
X87977800Y-103736687D01*
X87946865Y-103892210D01*
X87886183Y-104038709D01*
X87886182Y-104038710D01*
X87798084Y-104170558D01*
X87685958Y-104282684D01*
X87619585Y-104327033D01*
X87554109Y-104370783D01*
X87407610Y-104431465D01*
X87252087Y-104462400D01*
X87093513Y-104462400D01*
X86937990Y-104431465D01*
X86791491Y-104370783D01*
X86726015Y-104327033D01*
X86659642Y-104282684D01*
X86547516Y-104170558D01*
X86459418Y-104038710D01*
X86459417Y-104038709D01*
X86398735Y-103892210D01*
X86367800Y-103736687D01*
X86367800Y-103578113D01*
X86398735Y-103422590D01*
X86459417Y-103276091D01*
X86547515Y-103144244D01*
X86547516Y-103144242D01*
X86659642Y-103032116D01*
X86791490Y-102944018D01*
X86791491Y-102944017D01*
X86937990Y-102883335D01*
X87093513Y-102852400D01*
X87252087Y-102852400D01*
X87407610Y-102883335D01*
G37*
G36*
X84867610Y-102883335D02*
G01*
X85014109Y-102944017D01*
X85014110Y-102944018D01*
X85145958Y-103032116D01*
X85258084Y-103144242D01*
X85258085Y-103144244D01*
X85346183Y-103276091D01*
X85406865Y-103422590D01*
X85437800Y-103578113D01*
X85437800Y-103736687D01*
X85406865Y-103892210D01*
X85346183Y-104038709D01*
X85346182Y-104038710D01*
X85258084Y-104170558D01*
X85145958Y-104282684D01*
X85079585Y-104327033D01*
X85014109Y-104370783D01*
X84867610Y-104431465D01*
X84712087Y-104462400D01*
X84553513Y-104462400D01*
X84397990Y-104431465D01*
X84251491Y-104370783D01*
X84186015Y-104327033D01*
X84119642Y-104282684D01*
X84007516Y-104170558D01*
X83919418Y-104038710D01*
X83919417Y-104038709D01*
X83858735Y-103892210D01*
X83827800Y-103736687D01*
X83827800Y-103578113D01*
X83858735Y-103422590D01*
X83919417Y-103276091D01*
X84007515Y-103144244D01*
X84007516Y-103144242D01*
X84119642Y-103032116D01*
X84251490Y-102944018D01*
X84251491Y-102944017D01*
X84397990Y-102883335D01*
X84553513Y-102852400D01*
X84712087Y-102852400D01*
X84867610Y-102883335D01*
G37*
G36*
X82327610Y-102883335D02*
G01*
X82474109Y-102944017D01*
X82474110Y-102944018D01*
X82605958Y-103032116D01*
X82718084Y-103144242D01*
X82718085Y-103144244D01*
X82806183Y-103276091D01*
X82866865Y-103422590D01*
X82897800Y-103578113D01*
X82897800Y-103736687D01*
X82866865Y-103892210D01*
X82806183Y-104038709D01*
X82806182Y-104038710D01*
X82718084Y-104170558D01*
X82605958Y-104282684D01*
X82539585Y-104327033D01*
X82474109Y-104370783D01*
X82327610Y-104431465D01*
X82172087Y-104462400D01*
X82013513Y-104462400D01*
X81857990Y-104431465D01*
X81711491Y-104370783D01*
X81646015Y-104327033D01*
X81579642Y-104282684D01*
X81467516Y-104170558D01*
X81379418Y-104038710D01*
X81379417Y-104038709D01*
X81318735Y-103892210D01*
X81287800Y-103736687D01*
X81287800Y-103578113D01*
X81318735Y-103422590D01*
X81379417Y-103276091D01*
X81467515Y-103144244D01*
X81467516Y-103144242D01*
X81579642Y-103032116D01*
X81711490Y-102944018D01*
X81711491Y-102944017D01*
X81857990Y-102883335D01*
X82013513Y-102852400D01*
X82172087Y-102852400D01*
X82327610Y-102883335D01*
G37*
G36*
X97567610Y-102883335D02*
G01*
X97714109Y-102944017D01*
X97714110Y-102944018D01*
X97845958Y-103032116D01*
X97958084Y-103144242D01*
X97958085Y-103144244D01*
X98046183Y-103276091D01*
X98106865Y-103422590D01*
X98137800Y-103578113D01*
X98137800Y-103736687D01*
X98106865Y-103892210D01*
X98046183Y-104038709D01*
X98046182Y-104038710D01*
X97958084Y-104170558D01*
X97845958Y-104282684D01*
X97779585Y-104327033D01*
X97714109Y-104370783D01*
X97567610Y-104431465D01*
X97412087Y-104462400D01*
X97253513Y-104462400D01*
X97097990Y-104431465D01*
X96951491Y-104370783D01*
X96886015Y-104327033D01*
X96819642Y-104282684D01*
X96707516Y-104170558D01*
X96619418Y-104038710D01*
X96619417Y-104038709D01*
X96558735Y-103892210D01*
X96527800Y-103736687D01*
X96527800Y-103578113D01*
X96558735Y-103422590D01*
X96619417Y-103276091D01*
X96707515Y-103144244D01*
X96707516Y-103144242D01*
X96819642Y-103032116D01*
X96951490Y-102944018D01*
X96951491Y-102944017D01*
X97097990Y-102883335D01*
X97253513Y-102852400D01*
X97412087Y-102852400D01*
X97567610Y-102883335D01*
G37*
G36*
X74707610Y-102883335D02*
G01*
X74854109Y-102944017D01*
X74854110Y-102944018D01*
X74985958Y-103032116D01*
X75098084Y-103144242D01*
X75098085Y-103144244D01*
X75186183Y-103276091D01*
X75246865Y-103422590D01*
X75277800Y-103578113D01*
X75277800Y-103736687D01*
X75246865Y-103892210D01*
X75186183Y-104038709D01*
X75186182Y-104038710D01*
X75098084Y-104170558D01*
X74985958Y-104282684D01*
X74919585Y-104327033D01*
X74854109Y-104370783D01*
X74707610Y-104431465D01*
X74552087Y-104462400D01*
X74393513Y-104462400D01*
X74237990Y-104431465D01*
X74091491Y-104370783D01*
X74026015Y-104327033D01*
X73959642Y-104282684D01*
X73847516Y-104170558D01*
X73759418Y-104038710D01*
X73759417Y-104038709D01*
X73698735Y-103892210D01*
X73667800Y-103736687D01*
X73667800Y-103578113D01*
X73698735Y-103422590D01*
X73759417Y-103276091D01*
X73847515Y-103144244D01*
X73847516Y-103144242D01*
X73959642Y-103032116D01*
X74091490Y-102944018D01*
X74091491Y-102944017D01*
X74237990Y-102883335D01*
X74393513Y-102852400D01*
X74552087Y-102852400D01*
X74707610Y-102883335D01*
G37*
G36*
X72167610Y-102883335D02*
G01*
X72314109Y-102944017D01*
X72314110Y-102944018D01*
X72445958Y-103032116D01*
X72558084Y-103144242D01*
X72558085Y-103144244D01*
X72646183Y-103276091D01*
X72706865Y-103422590D01*
X72737800Y-103578113D01*
X72737800Y-103736687D01*
X72706865Y-103892210D01*
X72646183Y-104038709D01*
X72646182Y-104038710D01*
X72558084Y-104170558D01*
X72445958Y-104282684D01*
X72379585Y-104327033D01*
X72314109Y-104370783D01*
X72167610Y-104431465D01*
X72012087Y-104462400D01*
X71853513Y-104462400D01*
X71697990Y-104431465D01*
X71551491Y-104370783D01*
X71486015Y-104327033D01*
X71419642Y-104282684D01*
X71307516Y-104170558D01*
X71219418Y-104038710D01*
X71219417Y-104038709D01*
X71158735Y-103892210D01*
X71127800Y-103736687D01*
X71127800Y-103578113D01*
X71158735Y-103422590D01*
X71219417Y-103276091D01*
X71307515Y-103144244D01*
X71307516Y-103144242D01*
X71419642Y-103032116D01*
X71551490Y-102944018D01*
X71551491Y-102944017D01*
X71697990Y-102883335D01*
X71853513Y-102852400D01*
X72012087Y-102852400D01*
X72167610Y-102883335D01*
G37*
G36*
X69627610Y-102883335D02*
G01*
X69774109Y-102944017D01*
X69774110Y-102944018D01*
X69905958Y-103032116D01*
X70018084Y-103144242D01*
X70018085Y-103144244D01*
X70106183Y-103276091D01*
X70166865Y-103422590D01*
X70197800Y-103578113D01*
X70197800Y-103736687D01*
X70166865Y-103892210D01*
X70106183Y-104038709D01*
X70106182Y-104038710D01*
X70018084Y-104170558D01*
X69905958Y-104282684D01*
X69839585Y-104327033D01*
X69774109Y-104370783D01*
X69627610Y-104431465D01*
X69472087Y-104462400D01*
X69313513Y-104462400D01*
X69157990Y-104431465D01*
X69011491Y-104370783D01*
X68946015Y-104327033D01*
X68879642Y-104282684D01*
X68767516Y-104170558D01*
X68679418Y-104038710D01*
X68679417Y-104038709D01*
X68618735Y-103892210D01*
X68587800Y-103736687D01*
X68587800Y-103578113D01*
X68618735Y-103422590D01*
X68679417Y-103276091D01*
X68767515Y-103144244D01*
X68767516Y-103144242D01*
X68879642Y-103032116D01*
X69011490Y-102944018D01*
X69011491Y-102944017D01*
X69157990Y-102883335D01*
X69313513Y-102852400D01*
X69472087Y-102852400D01*
X69627610Y-102883335D01*
G37*
G36*
X67087610Y-102883335D02*
G01*
X67234109Y-102944017D01*
X67234110Y-102944018D01*
X67365958Y-103032116D01*
X67478084Y-103144242D01*
X67478085Y-103144244D01*
X67566183Y-103276091D01*
X67626865Y-103422590D01*
X67657800Y-103578113D01*
X67657800Y-103736687D01*
X67626865Y-103892210D01*
X67566183Y-104038709D01*
X67566182Y-104038710D01*
X67478084Y-104170558D01*
X67365958Y-104282684D01*
X67299585Y-104327033D01*
X67234109Y-104370783D01*
X67087610Y-104431465D01*
X66932087Y-104462400D01*
X66773513Y-104462400D01*
X66617990Y-104431465D01*
X66471491Y-104370783D01*
X66406015Y-104327033D01*
X66339642Y-104282684D01*
X66227516Y-104170558D01*
X66139418Y-104038710D01*
X66139417Y-104038709D01*
X66078735Y-103892210D01*
X66047800Y-103736687D01*
X66047800Y-103578113D01*
X66078735Y-103422590D01*
X66139417Y-103276091D01*
X66227515Y-103144244D01*
X66227516Y-103144242D01*
X66339642Y-103032116D01*
X66471490Y-102944018D01*
X66471491Y-102944017D01*
X66617990Y-102883335D01*
X66773513Y-102852400D01*
X66932087Y-102852400D01*
X67087610Y-102883335D01*
G37*
G36*
X64547610Y-102883335D02*
G01*
X64694109Y-102944017D01*
X64694110Y-102944018D01*
X64825958Y-103032116D01*
X64938084Y-103144242D01*
X64938085Y-103144244D01*
X65026183Y-103276091D01*
X65086865Y-103422590D01*
X65117800Y-103578113D01*
X65117800Y-103736687D01*
X65086865Y-103892210D01*
X65026183Y-104038709D01*
X65026182Y-104038710D01*
X64938084Y-104170558D01*
X64825958Y-104282684D01*
X64759585Y-104327033D01*
X64694109Y-104370783D01*
X64547610Y-104431465D01*
X64392087Y-104462400D01*
X64233513Y-104462400D01*
X64077990Y-104431465D01*
X63931491Y-104370783D01*
X63866015Y-104327033D01*
X63799642Y-104282684D01*
X63687516Y-104170558D01*
X63599418Y-104038710D01*
X63599417Y-104038709D01*
X63538735Y-103892210D01*
X63507800Y-103736687D01*
X63507800Y-103578113D01*
X63538735Y-103422590D01*
X63599417Y-103276091D01*
X63687515Y-103144244D01*
X63687516Y-103144242D01*
X63799642Y-103032116D01*
X63931490Y-102944018D01*
X63931491Y-102944017D01*
X64077990Y-102883335D01*
X64233513Y-102852400D01*
X64392087Y-102852400D01*
X64547610Y-102883335D01*
G37*
G36*
X62007610Y-102883335D02*
G01*
X62154109Y-102944017D01*
X62154110Y-102944018D01*
X62285958Y-103032116D01*
X62398084Y-103144242D01*
X62398085Y-103144244D01*
X62486183Y-103276091D01*
X62546865Y-103422590D01*
X62577800Y-103578113D01*
X62577800Y-103736687D01*
X62546865Y-103892210D01*
X62486183Y-104038709D01*
X62486182Y-104038710D01*
X62398084Y-104170558D01*
X62285958Y-104282684D01*
X62219585Y-104327033D01*
X62154109Y-104370783D01*
X62007610Y-104431465D01*
X61852087Y-104462400D01*
X61693513Y-104462400D01*
X61537990Y-104431465D01*
X61391491Y-104370783D01*
X61326015Y-104327033D01*
X61259642Y-104282684D01*
X61147516Y-104170558D01*
X61059418Y-104038710D01*
X61059417Y-104038709D01*
X60998735Y-103892210D01*
X60967800Y-103736687D01*
X60967800Y-103578113D01*
X60998735Y-103422590D01*
X61059417Y-103276091D01*
X61147515Y-103144244D01*
X61147516Y-103144242D01*
X61259642Y-103032116D01*
X61391490Y-102944018D01*
X61391491Y-102944017D01*
X61537990Y-102883335D01*
X61693513Y-102852400D01*
X61852087Y-102852400D01*
X62007610Y-102883335D01*
G37*
G36*
X59467610Y-102883335D02*
G01*
X59614109Y-102944017D01*
X59614110Y-102944018D01*
X59745958Y-103032116D01*
X59858084Y-103144242D01*
X59858085Y-103144244D01*
X59946183Y-103276091D01*
X60006865Y-103422590D01*
X60037800Y-103578113D01*
X60037800Y-103736687D01*
X60006865Y-103892210D01*
X59946183Y-104038709D01*
X59946182Y-104038710D01*
X59858084Y-104170558D01*
X59745958Y-104282684D01*
X59679585Y-104327033D01*
X59614109Y-104370783D01*
X59467610Y-104431465D01*
X59312087Y-104462400D01*
X59153513Y-104462400D01*
X58997990Y-104431465D01*
X58851491Y-104370783D01*
X58786015Y-104327033D01*
X58719642Y-104282684D01*
X58607516Y-104170558D01*
X58519418Y-104038710D01*
X58519417Y-104038709D01*
X58458735Y-103892210D01*
X58427800Y-103736687D01*
X58427800Y-103578113D01*
X58458735Y-103422590D01*
X58519417Y-103276091D01*
X58607515Y-103144244D01*
X58607516Y-103144242D01*
X58719642Y-103032116D01*
X58851490Y-102944018D01*
X58851491Y-102944017D01*
X58997990Y-102883335D01*
X59153513Y-102852400D01*
X59312087Y-102852400D01*
X59467610Y-102883335D01*
G37*
G36*
X56927610Y-102883335D02*
G01*
X57074109Y-102944017D01*
X57074110Y-102944018D01*
X57205958Y-103032116D01*
X57318084Y-103144242D01*
X57318085Y-103144244D01*
X57406183Y-103276091D01*
X57466865Y-103422590D01*
X57497800Y-103578113D01*
X57497800Y-103736687D01*
X57466865Y-103892210D01*
X57406183Y-104038709D01*
X57406182Y-104038710D01*
X57318084Y-104170558D01*
X57205958Y-104282684D01*
X57139585Y-104327033D01*
X57074109Y-104370783D01*
X56927610Y-104431465D01*
X56772087Y-104462400D01*
X56613513Y-104462400D01*
X56457990Y-104431465D01*
X56311491Y-104370783D01*
X56246015Y-104327033D01*
X56179642Y-104282684D01*
X56067516Y-104170558D01*
X55979418Y-104038710D01*
X55979417Y-104038709D01*
X55918735Y-103892210D01*
X55887800Y-103736687D01*
X55887800Y-103578113D01*
X55918735Y-103422590D01*
X55979417Y-103276091D01*
X56067515Y-103144244D01*
X56067516Y-103144242D01*
X56179642Y-103032116D01*
X56311490Y-102944018D01*
X56311491Y-102944017D01*
X56457990Y-102883335D01*
X56613513Y-102852400D01*
X56772087Y-102852400D01*
X56927610Y-102883335D01*
G37*
G36*
X77247610Y-102883335D02*
G01*
X77394109Y-102944017D01*
X77394110Y-102944018D01*
X77525958Y-103032116D01*
X77638084Y-103144242D01*
X77638085Y-103144244D01*
X77726183Y-103276091D01*
X77786865Y-103422590D01*
X77817800Y-103578113D01*
X77817800Y-103736687D01*
X77786865Y-103892210D01*
X77726183Y-104038709D01*
X77726182Y-104038710D01*
X77638084Y-104170558D01*
X77525958Y-104282684D01*
X77459585Y-104327033D01*
X77394109Y-104370783D01*
X77247610Y-104431465D01*
X77092087Y-104462400D01*
X76933513Y-104462400D01*
X76777990Y-104431465D01*
X76631491Y-104370783D01*
X76566015Y-104327033D01*
X76499642Y-104282684D01*
X76387516Y-104170558D01*
X76299418Y-104038710D01*
X76299417Y-104038709D01*
X76238735Y-103892210D01*
X76207800Y-103736687D01*
X76207800Y-103578113D01*
X76238735Y-103422590D01*
X76299417Y-103276091D01*
X76387515Y-103144244D01*
X76387516Y-103144242D01*
X76499642Y-103032116D01*
X76631490Y-102944018D01*
X76631491Y-102944017D01*
X76777990Y-102883335D01*
X76933513Y-102852400D01*
X77092087Y-102852400D01*
X77247610Y-102883335D01*
G37*
G36*
X67087610Y-100343335D02*
G01*
X67234109Y-100404017D01*
X67234110Y-100404018D01*
X67365958Y-100492116D01*
X67478084Y-100604242D01*
X67478085Y-100604244D01*
X67566183Y-100736091D01*
X67626865Y-100882590D01*
X67657800Y-101038113D01*
X67657800Y-101196687D01*
X67626865Y-101352210D01*
X67566183Y-101498709D01*
X67566182Y-101498710D01*
X67478084Y-101630558D01*
X67365958Y-101742684D01*
X67299585Y-101787033D01*
X67234109Y-101830783D01*
X67087610Y-101891465D01*
X66932087Y-101922400D01*
X66773513Y-101922400D01*
X66617990Y-101891465D01*
X66471491Y-101830783D01*
X66406015Y-101787033D01*
X66339642Y-101742684D01*
X66227516Y-101630558D01*
X66139418Y-101498710D01*
X66139417Y-101498709D01*
X66078735Y-101352210D01*
X66047800Y-101196687D01*
X66047800Y-101038113D01*
X66078735Y-100882590D01*
X66139417Y-100736091D01*
X66227515Y-100604244D01*
X66227516Y-100604242D01*
X66339642Y-100492116D01*
X66471490Y-100404018D01*
X66471491Y-100404017D01*
X66617990Y-100343335D01*
X66773513Y-100312400D01*
X66932087Y-100312400D01*
X67087610Y-100343335D01*
G37*
G36*
X74707610Y-100343335D02*
G01*
X74854109Y-100404017D01*
X74854110Y-100404018D01*
X74985958Y-100492116D01*
X75098084Y-100604242D01*
X75098085Y-100604244D01*
X75186183Y-100736091D01*
X75246865Y-100882590D01*
X75277800Y-101038113D01*
X75277800Y-101196687D01*
X75246865Y-101352210D01*
X75186183Y-101498709D01*
X75186182Y-101498710D01*
X75098084Y-101630558D01*
X74985958Y-101742684D01*
X74919585Y-101787033D01*
X74854109Y-101830783D01*
X74707610Y-101891465D01*
X74552087Y-101922400D01*
X74393513Y-101922400D01*
X74237990Y-101891465D01*
X74091491Y-101830783D01*
X74026015Y-101787033D01*
X73959642Y-101742684D01*
X73847516Y-101630558D01*
X73759418Y-101498710D01*
X73759417Y-101498709D01*
X73698735Y-101352210D01*
X73667800Y-101196687D01*
X73667800Y-101038113D01*
X73698735Y-100882590D01*
X73759417Y-100736091D01*
X73847515Y-100604244D01*
X73847516Y-100604242D01*
X73959642Y-100492116D01*
X74091490Y-100404018D01*
X74091491Y-100404017D01*
X74237990Y-100343335D01*
X74393513Y-100312400D01*
X74552087Y-100312400D01*
X74707610Y-100343335D01*
G37*
G36*
X64547610Y-100343335D02*
G01*
X64694109Y-100404017D01*
X64694110Y-100404018D01*
X64825958Y-100492116D01*
X64938084Y-100604242D01*
X64938085Y-100604244D01*
X65026183Y-100736091D01*
X65086865Y-100882590D01*
X65117800Y-101038113D01*
X65117800Y-101196687D01*
X65086865Y-101352210D01*
X65026183Y-101498709D01*
X65026182Y-101498710D01*
X64938084Y-101630558D01*
X64825958Y-101742684D01*
X64759585Y-101787033D01*
X64694109Y-101830783D01*
X64547610Y-101891465D01*
X64392087Y-101922400D01*
X64233513Y-101922400D01*
X64077990Y-101891465D01*
X63931491Y-101830783D01*
X63866015Y-101787033D01*
X63799642Y-101742684D01*
X63687516Y-101630558D01*
X63599418Y-101498710D01*
X63599417Y-101498709D01*
X63538735Y-101352210D01*
X63507800Y-101196687D01*
X63507800Y-101038113D01*
X63538735Y-100882590D01*
X63599417Y-100736091D01*
X63687515Y-100604244D01*
X63687516Y-100604242D01*
X63799642Y-100492116D01*
X63931490Y-100404018D01*
X63931491Y-100404017D01*
X64077990Y-100343335D01*
X64233513Y-100312400D01*
X64392087Y-100312400D01*
X64547610Y-100343335D01*
G37*
G36*
X62007610Y-100343335D02*
G01*
X62154109Y-100404017D01*
X62154110Y-100404018D01*
X62285958Y-100492116D01*
X62398084Y-100604242D01*
X62398085Y-100604244D01*
X62486183Y-100736091D01*
X62546865Y-100882590D01*
X62577800Y-101038113D01*
X62577800Y-101196687D01*
X62546865Y-101352210D01*
X62486183Y-101498709D01*
X62486182Y-101498710D01*
X62398084Y-101630558D01*
X62285958Y-101742684D01*
X62219585Y-101787033D01*
X62154109Y-101830783D01*
X62007610Y-101891465D01*
X61852087Y-101922400D01*
X61693513Y-101922400D01*
X61537990Y-101891465D01*
X61391491Y-101830783D01*
X61326015Y-101787033D01*
X61259642Y-101742684D01*
X61147516Y-101630558D01*
X61059418Y-101498710D01*
X61059417Y-101498709D01*
X60998735Y-101352210D01*
X60967800Y-101196687D01*
X60967800Y-101038113D01*
X60998735Y-100882590D01*
X61059417Y-100736091D01*
X61147515Y-100604244D01*
X61147516Y-100604242D01*
X61259642Y-100492116D01*
X61391490Y-100404018D01*
X61391491Y-100404017D01*
X61537990Y-100343335D01*
X61693513Y-100312400D01*
X61852087Y-100312400D01*
X62007610Y-100343335D01*
G37*
G36*
X59467610Y-100343335D02*
G01*
X59614109Y-100404017D01*
X59614110Y-100404018D01*
X59745958Y-100492116D01*
X59858084Y-100604242D01*
X59858085Y-100604244D01*
X59946183Y-100736091D01*
X60006865Y-100882590D01*
X60037800Y-101038113D01*
X60037800Y-101196687D01*
X60006865Y-101352210D01*
X59946183Y-101498709D01*
X59946182Y-101498710D01*
X59858084Y-101630558D01*
X59745958Y-101742684D01*
X59679585Y-101787033D01*
X59614109Y-101830783D01*
X59467610Y-101891465D01*
X59312087Y-101922400D01*
X59153513Y-101922400D01*
X58997990Y-101891465D01*
X58851491Y-101830783D01*
X58786015Y-101787033D01*
X58719642Y-101742684D01*
X58607516Y-101630558D01*
X58519418Y-101498710D01*
X58519417Y-101498709D01*
X58458735Y-101352210D01*
X58427800Y-101196687D01*
X58427800Y-101038113D01*
X58458735Y-100882590D01*
X58519417Y-100736091D01*
X58607515Y-100604244D01*
X58607516Y-100604242D01*
X58719642Y-100492116D01*
X58851490Y-100404018D01*
X58851491Y-100404017D01*
X58997990Y-100343335D01*
X59153513Y-100312400D01*
X59312087Y-100312400D01*
X59467610Y-100343335D01*
G37*
G36*
X56927610Y-100343335D02*
G01*
X57074109Y-100404017D01*
X57074110Y-100404018D01*
X57205958Y-100492116D01*
X57318084Y-100604242D01*
X57318085Y-100604244D01*
X57406183Y-100736091D01*
X57466865Y-100882590D01*
X57497800Y-101038113D01*
X57497800Y-101196687D01*
X57466865Y-101352210D01*
X57406183Y-101498709D01*
X57406182Y-101498710D01*
X57318084Y-101630558D01*
X57205958Y-101742684D01*
X57139585Y-101787033D01*
X57074109Y-101830783D01*
X56927610Y-101891465D01*
X56772087Y-101922400D01*
X56613513Y-101922400D01*
X56457990Y-101891465D01*
X56311491Y-101830783D01*
X56246015Y-101787033D01*
X56179642Y-101742684D01*
X56067516Y-101630558D01*
X55979418Y-101498710D01*
X55979417Y-101498709D01*
X55918735Y-101352210D01*
X55887800Y-101196687D01*
X55887800Y-101038113D01*
X55918735Y-100882590D01*
X55979417Y-100736091D01*
X56067515Y-100604244D01*
X56067516Y-100604242D01*
X56179642Y-100492116D01*
X56311490Y-100404018D01*
X56311491Y-100404017D01*
X56457990Y-100343335D01*
X56613513Y-100312400D01*
X56772087Y-100312400D01*
X56927610Y-100343335D01*
G37*
G36*
X54387610Y-100343335D02*
G01*
X54534109Y-100404017D01*
X54534110Y-100404018D01*
X54665958Y-100492116D01*
X54778084Y-100604242D01*
X54778085Y-100604244D01*
X54866183Y-100736091D01*
X54926865Y-100882590D01*
X54957800Y-101038113D01*
X54957800Y-101196687D01*
X54926865Y-101352210D01*
X54866183Y-101498709D01*
X54866182Y-101498710D01*
X54778084Y-101630558D01*
X54665958Y-101742684D01*
X54599585Y-101787033D01*
X54534109Y-101830783D01*
X54387610Y-101891465D01*
X54232087Y-101922400D01*
X54073513Y-101922400D01*
X53917990Y-101891465D01*
X53771491Y-101830783D01*
X53706015Y-101787033D01*
X53639642Y-101742684D01*
X53527516Y-101630558D01*
X53439418Y-101498710D01*
X53439417Y-101498709D01*
X53378735Y-101352210D01*
X53347800Y-101196687D01*
X53347800Y-101038113D01*
X53378735Y-100882590D01*
X53439417Y-100736091D01*
X53527515Y-100604244D01*
X53527516Y-100604242D01*
X53639642Y-100492116D01*
X53771490Y-100404018D01*
X53771491Y-100404017D01*
X53917990Y-100343335D01*
X54073513Y-100312400D01*
X54232087Y-100312400D01*
X54387610Y-100343335D01*
G37*
G36*
X51847610Y-100343335D02*
G01*
X51994109Y-100404017D01*
X51994110Y-100404018D01*
X52125958Y-100492116D01*
X52238084Y-100604242D01*
X52238085Y-100604244D01*
X52326183Y-100736091D01*
X52386865Y-100882590D01*
X52417800Y-101038113D01*
X52417800Y-101196687D01*
X52386865Y-101352210D01*
X52326183Y-101498709D01*
X52326182Y-101498710D01*
X52238084Y-101630558D01*
X52125958Y-101742684D01*
X52059585Y-101787033D01*
X51994109Y-101830783D01*
X51847610Y-101891465D01*
X51692087Y-101922400D01*
X51533513Y-101922400D01*
X51377990Y-101891465D01*
X51231491Y-101830783D01*
X51166015Y-101787033D01*
X51099642Y-101742684D01*
X50987516Y-101630558D01*
X50899418Y-101498710D01*
X50899417Y-101498709D01*
X50838735Y-101352210D01*
X50807800Y-101196687D01*
X50807800Y-101038113D01*
X50838735Y-100882590D01*
X50899417Y-100736091D01*
X50987515Y-100604244D01*
X50987516Y-100604242D01*
X51099642Y-100492116D01*
X51231490Y-100404018D01*
X51231491Y-100404017D01*
X51377990Y-100343335D01*
X51533513Y-100312400D01*
X51692087Y-100312400D01*
X51847610Y-100343335D01*
G37*
G36*
X97567610Y-100343335D02*
G01*
X97714109Y-100404017D01*
X97714110Y-100404018D01*
X97845958Y-100492116D01*
X97958084Y-100604242D01*
X97958085Y-100604244D01*
X98046183Y-100736091D01*
X98106865Y-100882590D01*
X98137800Y-101038113D01*
X98137800Y-101196687D01*
X98106865Y-101352210D01*
X98046183Y-101498709D01*
X98046182Y-101498710D01*
X97958084Y-101630558D01*
X97845958Y-101742684D01*
X97779585Y-101787033D01*
X97714109Y-101830783D01*
X97567610Y-101891465D01*
X97412087Y-101922400D01*
X97253513Y-101922400D01*
X97097990Y-101891465D01*
X96951491Y-101830783D01*
X96886015Y-101787033D01*
X96819642Y-101742684D01*
X96707516Y-101630558D01*
X96619418Y-101498710D01*
X96619417Y-101498709D01*
X96558735Y-101352210D01*
X96527800Y-101196687D01*
X96527800Y-101038113D01*
X96558735Y-100882590D01*
X96619417Y-100736091D01*
X96707515Y-100604244D01*
X96707516Y-100604242D01*
X96819642Y-100492116D01*
X96951490Y-100404018D01*
X96951491Y-100404017D01*
X97097990Y-100343335D01*
X97253513Y-100312400D01*
X97412087Y-100312400D01*
X97567610Y-100343335D01*
G37*
G36*
X95027610Y-100343335D02*
G01*
X95174109Y-100404017D01*
X95174110Y-100404018D01*
X95305958Y-100492116D01*
X95418084Y-100604242D01*
X95418085Y-100604244D01*
X95506183Y-100736091D01*
X95566865Y-100882590D01*
X95597800Y-101038113D01*
X95597800Y-101196687D01*
X95566865Y-101352210D01*
X95506183Y-101498709D01*
X95506182Y-101498710D01*
X95418084Y-101630558D01*
X95305958Y-101742684D01*
X95239585Y-101787033D01*
X95174109Y-101830783D01*
X95027610Y-101891465D01*
X94872087Y-101922400D01*
X94713513Y-101922400D01*
X94557990Y-101891465D01*
X94411491Y-101830783D01*
X94346015Y-101787033D01*
X94279642Y-101742684D01*
X94167516Y-101630558D01*
X94079418Y-101498710D01*
X94079417Y-101498709D01*
X94018735Y-101352210D01*
X93987800Y-101196687D01*
X93987800Y-101038113D01*
X94018735Y-100882590D01*
X94079417Y-100736091D01*
X94167515Y-100604244D01*
X94167516Y-100604242D01*
X94279642Y-100492116D01*
X94411490Y-100404018D01*
X94411491Y-100404017D01*
X94557990Y-100343335D01*
X94713513Y-100312400D01*
X94872087Y-100312400D01*
X95027610Y-100343335D01*
G37*
G36*
X72167610Y-100343335D02*
G01*
X72314109Y-100404017D01*
X72314110Y-100404018D01*
X72445958Y-100492116D01*
X72558084Y-100604242D01*
X72558085Y-100604244D01*
X72646183Y-100736091D01*
X72706865Y-100882590D01*
X72737800Y-101038113D01*
X72737800Y-101196687D01*
X72706865Y-101352210D01*
X72646183Y-101498709D01*
X72646182Y-101498710D01*
X72558084Y-101630558D01*
X72445958Y-101742684D01*
X72379585Y-101787033D01*
X72314109Y-101830783D01*
X72167610Y-101891465D01*
X72012087Y-101922400D01*
X71853513Y-101922400D01*
X71697990Y-101891465D01*
X71551491Y-101830783D01*
X71486015Y-101787033D01*
X71419642Y-101742684D01*
X71307516Y-101630558D01*
X71219418Y-101498710D01*
X71219417Y-101498709D01*
X71158735Y-101352210D01*
X71127800Y-101196687D01*
X71127800Y-101038113D01*
X71158735Y-100882590D01*
X71219417Y-100736091D01*
X71307515Y-100604244D01*
X71307516Y-100604242D01*
X71419642Y-100492116D01*
X71551490Y-100404018D01*
X71551491Y-100404017D01*
X71697990Y-100343335D01*
X71853513Y-100312400D01*
X72012087Y-100312400D01*
X72167610Y-100343335D01*
G37*
G36*
X77247610Y-100343335D02*
G01*
X77394109Y-100404017D01*
X77394110Y-100404018D01*
X77525958Y-100492116D01*
X77638084Y-100604242D01*
X77638085Y-100604244D01*
X77726183Y-100736091D01*
X77786865Y-100882590D01*
X77817800Y-101038113D01*
X77817800Y-101196687D01*
X77786865Y-101352210D01*
X77726183Y-101498709D01*
X77726182Y-101498710D01*
X77638084Y-101630558D01*
X77525958Y-101742684D01*
X77459585Y-101787033D01*
X77394109Y-101830783D01*
X77247610Y-101891465D01*
X77092087Y-101922400D01*
X76933513Y-101922400D01*
X76777990Y-101891465D01*
X76631491Y-101830783D01*
X76566015Y-101787033D01*
X76499642Y-101742684D01*
X76387516Y-101630558D01*
X76299418Y-101498710D01*
X76299417Y-101498709D01*
X76238735Y-101352210D01*
X76207800Y-101196687D01*
X76207800Y-101038113D01*
X76238735Y-100882590D01*
X76299417Y-100736091D01*
X76387515Y-100604244D01*
X76387516Y-100604242D01*
X76499642Y-100492116D01*
X76631490Y-100404018D01*
X76631491Y-100404017D01*
X76777990Y-100343335D01*
X76933513Y-100312400D01*
X77092087Y-100312400D01*
X77247610Y-100343335D01*
G37*
G36*
X79787610Y-100343335D02*
G01*
X79934109Y-100404017D01*
X79934110Y-100404018D01*
X80065958Y-100492116D01*
X80178084Y-100604242D01*
X80178085Y-100604244D01*
X80266183Y-100736091D01*
X80326865Y-100882590D01*
X80357800Y-101038113D01*
X80357800Y-101196687D01*
X80326865Y-101352210D01*
X80266183Y-101498709D01*
X80266182Y-101498710D01*
X80178084Y-101630558D01*
X80065958Y-101742684D01*
X79999585Y-101787033D01*
X79934109Y-101830783D01*
X79787610Y-101891465D01*
X79632087Y-101922400D01*
X79473513Y-101922400D01*
X79317990Y-101891465D01*
X79171491Y-101830783D01*
X79106015Y-101787033D01*
X79039642Y-101742684D01*
X78927516Y-101630558D01*
X78839418Y-101498710D01*
X78839417Y-101498709D01*
X78778735Y-101352210D01*
X78747800Y-101196687D01*
X78747800Y-101038113D01*
X78778735Y-100882590D01*
X78839417Y-100736091D01*
X78927515Y-100604244D01*
X78927516Y-100604242D01*
X79039642Y-100492116D01*
X79171490Y-100404018D01*
X79171491Y-100404017D01*
X79317990Y-100343335D01*
X79473513Y-100312400D01*
X79632087Y-100312400D01*
X79787610Y-100343335D01*
G37*
G36*
X82327610Y-100343335D02*
G01*
X82474109Y-100404017D01*
X82474110Y-100404018D01*
X82605958Y-100492116D01*
X82718084Y-100604242D01*
X82718085Y-100604244D01*
X82806183Y-100736091D01*
X82866865Y-100882590D01*
X82897800Y-101038113D01*
X82897800Y-101196687D01*
X82866865Y-101352210D01*
X82806183Y-101498709D01*
X82806182Y-101498710D01*
X82718084Y-101630558D01*
X82605958Y-101742684D01*
X82539585Y-101787033D01*
X82474109Y-101830783D01*
X82327610Y-101891465D01*
X82172087Y-101922400D01*
X82013513Y-101922400D01*
X81857990Y-101891465D01*
X81711491Y-101830783D01*
X81646015Y-101787033D01*
X81579642Y-101742684D01*
X81467516Y-101630558D01*
X81379418Y-101498710D01*
X81379417Y-101498709D01*
X81318735Y-101352210D01*
X81287800Y-101196687D01*
X81287800Y-101038113D01*
X81318735Y-100882590D01*
X81379417Y-100736091D01*
X81467515Y-100604244D01*
X81467516Y-100604242D01*
X81579642Y-100492116D01*
X81711490Y-100404018D01*
X81711491Y-100404017D01*
X81857990Y-100343335D01*
X82013513Y-100312400D01*
X82172087Y-100312400D01*
X82327610Y-100343335D01*
G37*
G36*
X84867610Y-100343335D02*
G01*
X85014109Y-100404017D01*
X85014110Y-100404018D01*
X85145958Y-100492116D01*
X85258084Y-100604242D01*
X85258085Y-100604244D01*
X85346183Y-100736091D01*
X85406865Y-100882590D01*
X85437800Y-101038113D01*
X85437800Y-101196687D01*
X85406865Y-101352210D01*
X85346183Y-101498709D01*
X85346182Y-101498710D01*
X85258084Y-101630558D01*
X85145958Y-101742684D01*
X85079585Y-101787033D01*
X85014109Y-101830783D01*
X84867610Y-101891465D01*
X84712087Y-101922400D01*
X84553513Y-101922400D01*
X84397990Y-101891465D01*
X84251491Y-101830783D01*
X84186015Y-101787033D01*
X84119642Y-101742684D01*
X84007516Y-101630558D01*
X83919418Y-101498710D01*
X83919417Y-101498709D01*
X83858735Y-101352210D01*
X83827800Y-101196687D01*
X83827800Y-101038113D01*
X83858735Y-100882590D01*
X83919417Y-100736091D01*
X84007515Y-100604244D01*
X84007516Y-100604242D01*
X84119642Y-100492116D01*
X84251490Y-100404018D01*
X84251491Y-100404017D01*
X84397990Y-100343335D01*
X84553513Y-100312400D01*
X84712087Y-100312400D01*
X84867610Y-100343335D01*
G37*
G36*
X87407610Y-100343335D02*
G01*
X87554109Y-100404017D01*
X87554110Y-100404018D01*
X87685958Y-100492116D01*
X87798084Y-100604242D01*
X87798085Y-100604244D01*
X87886183Y-100736091D01*
X87946865Y-100882590D01*
X87977800Y-101038113D01*
X87977800Y-101196687D01*
X87946865Y-101352210D01*
X87886183Y-101498709D01*
X87886182Y-101498710D01*
X87798084Y-101630558D01*
X87685958Y-101742684D01*
X87619585Y-101787033D01*
X87554109Y-101830783D01*
X87407610Y-101891465D01*
X87252087Y-101922400D01*
X87093513Y-101922400D01*
X86937990Y-101891465D01*
X86791491Y-101830783D01*
X86726015Y-101787033D01*
X86659642Y-101742684D01*
X86547516Y-101630558D01*
X86459418Y-101498710D01*
X86459417Y-101498709D01*
X86398735Y-101352210D01*
X86367800Y-101196687D01*
X86367800Y-101038113D01*
X86398735Y-100882590D01*
X86459417Y-100736091D01*
X86547515Y-100604244D01*
X86547516Y-100604242D01*
X86659642Y-100492116D01*
X86791490Y-100404018D01*
X86791491Y-100404017D01*
X86937990Y-100343335D01*
X87093513Y-100312400D01*
X87252087Y-100312400D01*
X87407610Y-100343335D01*
G37*
G36*
X89947610Y-100343335D02*
G01*
X90094109Y-100404017D01*
X90094110Y-100404018D01*
X90225958Y-100492116D01*
X90338084Y-100604242D01*
X90338085Y-100604244D01*
X90426183Y-100736091D01*
X90486865Y-100882590D01*
X90517800Y-101038113D01*
X90517800Y-101196687D01*
X90486865Y-101352210D01*
X90426183Y-101498709D01*
X90426182Y-101498710D01*
X90338084Y-101630558D01*
X90225958Y-101742684D01*
X90159585Y-101787033D01*
X90094109Y-101830783D01*
X89947610Y-101891465D01*
X89792087Y-101922400D01*
X89633513Y-101922400D01*
X89477990Y-101891465D01*
X89331491Y-101830783D01*
X89266015Y-101787033D01*
X89199642Y-101742684D01*
X89087516Y-101630558D01*
X88999418Y-101498710D01*
X88999417Y-101498709D01*
X88938735Y-101352210D01*
X88907800Y-101196687D01*
X88907800Y-101038113D01*
X88938735Y-100882590D01*
X88999417Y-100736091D01*
X89087515Y-100604244D01*
X89087516Y-100604242D01*
X89199642Y-100492116D01*
X89331490Y-100404018D01*
X89331491Y-100404017D01*
X89477990Y-100343335D01*
X89633513Y-100312400D01*
X89792087Y-100312400D01*
X89947610Y-100343335D01*
G37*
G36*
X100107610Y-100343335D02*
G01*
X100254109Y-100404017D01*
X100254110Y-100404018D01*
X100385958Y-100492116D01*
X100498084Y-100604242D01*
X100498085Y-100604244D01*
X100586183Y-100736091D01*
X100646865Y-100882590D01*
X100677800Y-101038113D01*
X100677800Y-101196687D01*
X100646865Y-101352210D01*
X100586183Y-101498709D01*
X100586182Y-101498710D01*
X100498084Y-101630558D01*
X100385958Y-101742684D01*
X100319585Y-101787033D01*
X100254109Y-101830783D01*
X100107610Y-101891465D01*
X99952087Y-101922400D01*
X99793513Y-101922400D01*
X99637990Y-101891465D01*
X99491491Y-101830783D01*
X99426015Y-101787033D01*
X99359642Y-101742684D01*
X99247516Y-101630558D01*
X99159418Y-101498710D01*
X99159417Y-101498709D01*
X99098735Y-101352210D01*
X99067800Y-101196687D01*
X99067800Y-101038113D01*
X99098735Y-100882590D01*
X99159417Y-100736091D01*
X99247515Y-100604244D01*
X99247516Y-100604242D01*
X99359642Y-100492116D01*
X99491490Y-100404018D01*
X99491491Y-100404017D01*
X99637990Y-100343335D01*
X99793513Y-100312400D01*
X99952087Y-100312400D01*
X100107610Y-100343335D01*
G37*
G36*
X92487610Y-100343335D02*
G01*
X92634109Y-100404017D01*
X92634110Y-100404018D01*
X92765958Y-100492116D01*
X92878084Y-100604242D01*
X92878085Y-100604244D01*
X92966183Y-100736091D01*
X93026865Y-100882590D01*
X93057800Y-101038113D01*
X93057800Y-101196687D01*
X93026865Y-101352210D01*
X92966183Y-101498709D01*
X92966182Y-101498710D01*
X92878084Y-101630558D01*
X92765958Y-101742684D01*
X92699585Y-101787033D01*
X92634109Y-101830783D01*
X92487610Y-101891465D01*
X92332087Y-101922400D01*
X92173513Y-101922400D01*
X92017990Y-101891465D01*
X91871491Y-101830783D01*
X91806015Y-101787033D01*
X91739642Y-101742684D01*
X91627516Y-101630558D01*
X91539418Y-101498710D01*
X91539417Y-101498709D01*
X91478735Y-101352210D01*
X91447800Y-101196687D01*
X91447800Y-101038113D01*
X91478735Y-100882590D01*
X91539417Y-100736091D01*
X91627515Y-100604244D01*
X91627516Y-100604242D01*
X91739642Y-100492116D01*
X91871490Y-100404018D01*
X91871491Y-100404017D01*
X92017990Y-100343335D01*
X92173513Y-100312400D01*
X92332087Y-100312400D01*
X92487610Y-100343335D01*
G37*
G36*
X69627610Y-100343335D02*
G01*
X69774109Y-100404017D01*
X69774110Y-100404018D01*
X69905958Y-100492116D01*
X70018084Y-100604242D01*
X70018085Y-100604244D01*
X70106183Y-100736091D01*
X70166865Y-100882590D01*
X70197800Y-101038113D01*
X70197800Y-101196687D01*
X70166865Y-101352210D01*
X70106183Y-101498709D01*
X70106182Y-101498710D01*
X70018084Y-101630558D01*
X69905958Y-101742684D01*
X69839585Y-101787033D01*
X69774109Y-101830783D01*
X69627610Y-101891465D01*
X69472087Y-101922400D01*
X69313513Y-101922400D01*
X69157990Y-101891465D01*
X69011491Y-101830783D01*
X68946015Y-101787033D01*
X68879642Y-101742684D01*
X68767516Y-101630558D01*
X68679418Y-101498710D01*
X68679417Y-101498709D01*
X68618735Y-101352210D01*
X68587800Y-101196687D01*
X68587800Y-101038113D01*
X68618735Y-100882590D01*
X68679417Y-100736091D01*
X68767515Y-100604244D01*
X68767516Y-100604242D01*
X68879642Y-100492116D01*
X69011490Y-100404018D01*
X69011491Y-100404017D01*
X69157990Y-100343335D01*
X69313513Y-100312400D01*
X69472087Y-100312400D01*
X69627610Y-100343335D01*
G37*
G36*
X94478166Y-78564921D02*
G01*
X94614657Y-78621458D01*
X94737497Y-78703537D01*
X94841963Y-78808003D01*
X94924042Y-78930843D01*
X94980579Y-79067334D01*
X95009400Y-79212230D01*
X95009400Y-79359970D01*
X94980579Y-79504866D01*
X94924042Y-79641357D01*
X94841963Y-79764197D01*
X94737497Y-79868663D01*
X94614657Y-79950742D01*
X94478166Y-80007279D01*
X94333270Y-80036100D01*
X94185530Y-80036100D01*
X94040634Y-80007279D01*
X93904143Y-79950742D01*
X93781303Y-79868663D01*
X93676837Y-79764197D01*
X93594758Y-79641357D01*
X93538221Y-79504866D01*
X93509400Y-79359970D01*
X93509400Y-79212230D01*
X93538221Y-79067334D01*
X93594758Y-78930843D01*
X93676837Y-78808003D01*
X93781303Y-78703537D01*
X93904143Y-78621458D01*
X94040634Y-78564921D01*
X94185530Y-78536100D01*
X94333270Y-78536100D01*
X94478166Y-78564921D01*
G37*
G36*
X104638166Y-78564921D02*
G01*
X104774657Y-78621458D01*
X104897497Y-78703537D01*
X105001963Y-78808003D01*
X105084042Y-78930843D01*
X105140579Y-79067334D01*
X105169400Y-79212230D01*
X105169400Y-79359970D01*
X105140579Y-79504866D01*
X105084042Y-79641357D01*
X105001963Y-79764197D01*
X104897497Y-79868663D01*
X104774657Y-79950742D01*
X104638166Y-80007279D01*
X104493270Y-80036100D01*
X104345530Y-80036100D01*
X104200634Y-80007279D01*
X104064143Y-79950742D01*
X103941303Y-79868663D01*
X103836837Y-79764197D01*
X103754758Y-79641357D01*
X103698221Y-79504866D01*
X103669400Y-79359970D01*
X103669400Y-79212230D01*
X103698221Y-79067334D01*
X103754758Y-78930843D01*
X103836837Y-78808003D01*
X103941303Y-78703537D01*
X104064143Y-78621458D01*
X104200634Y-78564921D01*
X104345530Y-78536100D01*
X104493270Y-78536100D01*
X104638166Y-78564921D01*
G37*
G36*
X102098166Y-78564921D02*
G01*
X102234657Y-78621458D01*
X102357497Y-78703537D01*
X102461963Y-78808003D01*
X102544042Y-78930843D01*
X102600579Y-79067334D01*
X102629400Y-79212230D01*
X102629400Y-79359970D01*
X102600579Y-79504866D01*
X102544042Y-79641357D01*
X102461963Y-79764197D01*
X102357497Y-79868663D01*
X102234657Y-79950742D01*
X102098166Y-80007279D01*
X101953270Y-80036100D01*
X101805530Y-80036100D01*
X101660634Y-80007279D01*
X101524143Y-79950742D01*
X101401303Y-79868663D01*
X101296837Y-79764197D01*
X101214758Y-79641357D01*
X101158221Y-79504866D01*
X101129400Y-79359970D01*
X101129400Y-79212230D01*
X101158221Y-79067334D01*
X101214758Y-78930843D01*
X101296837Y-78808003D01*
X101401303Y-78703537D01*
X101524143Y-78621458D01*
X101660634Y-78564921D01*
X101805530Y-78536100D01*
X101953270Y-78536100D01*
X102098166Y-78564921D01*
G37*
G36*
X99558166Y-78564921D02*
G01*
X99694657Y-78621458D01*
X99817497Y-78703537D01*
X99921963Y-78808003D01*
X100004042Y-78930843D01*
X100060579Y-79067334D01*
X100089400Y-79212230D01*
X100089400Y-79359970D01*
X100060579Y-79504866D01*
X100004042Y-79641357D01*
X99921963Y-79764197D01*
X99817497Y-79868663D01*
X99694657Y-79950742D01*
X99558166Y-80007279D01*
X99413270Y-80036100D01*
X99265530Y-80036100D01*
X99120634Y-80007279D01*
X98984143Y-79950742D01*
X98861303Y-79868663D01*
X98756837Y-79764197D01*
X98674758Y-79641357D01*
X98618221Y-79504866D01*
X98589400Y-79359970D01*
X98589400Y-79212230D01*
X98618221Y-79067334D01*
X98674758Y-78930843D01*
X98756837Y-78808003D01*
X98861303Y-78703537D01*
X98984143Y-78621458D01*
X99120634Y-78564921D01*
X99265530Y-78536100D01*
X99413270Y-78536100D01*
X99558166Y-78564921D01*
G37*
G36*
X97018166Y-78564921D02*
G01*
X97154657Y-78621458D01*
X97277497Y-78703537D01*
X97381963Y-78808003D01*
X97464042Y-78930843D01*
X97520579Y-79067334D01*
X97549400Y-79212230D01*
X97549400Y-79359970D01*
X97520579Y-79504866D01*
X97464042Y-79641357D01*
X97381963Y-79764197D01*
X97277497Y-79868663D01*
X97154657Y-79950742D01*
X97018166Y-80007279D01*
X96873270Y-80036100D01*
X96725530Y-80036100D01*
X96580634Y-80007279D01*
X96444143Y-79950742D01*
X96321303Y-79868663D01*
X96216837Y-79764197D01*
X96134758Y-79641357D01*
X96078221Y-79504866D01*
X96049400Y-79359970D01*
X96049400Y-79212230D01*
X96078221Y-79067334D01*
X96134758Y-78930843D01*
X96216837Y-78808003D01*
X96321303Y-78703537D01*
X96444143Y-78621458D01*
X96580634Y-78564921D01*
X96725530Y-78536100D01*
X96873270Y-78536100D01*
X97018166Y-78564921D01*
G37*
G36*
X91938166Y-78564921D02*
G01*
X92074657Y-78621458D01*
X92197497Y-78703537D01*
X92301963Y-78808003D01*
X92384042Y-78930843D01*
X92440579Y-79067334D01*
X92469400Y-79212230D01*
X92469400Y-79359970D01*
X92440579Y-79504866D01*
X92384042Y-79641357D01*
X92301963Y-79764197D01*
X92197497Y-79868663D01*
X92074657Y-79950742D01*
X91938166Y-80007279D01*
X91793270Y-80036100D01*
X91645530Y-80036100D01*
X91500634Y-80007279D01*
X91364143Y-79950742D01*
X91241303Y-79868663D01*
X91136837Y-79764197D01*
X91054758Y-79641357D01*
X90998221Y-79504866D01*
X90969400Y-79359970D01*
X90969400Y-79212230D01*
X90998221Y-79067334D01*
X91054758Y-78930843D01*
X91136837Y-78808003D01*
X91241303Y-78703537D01*
X91364143Y-78621458D01*
X91500634Y-78564921D01*
X91645530Y-78536100D01*
X91793270Y-78536100D01*
X91938166Y-78564921D01*
G37*
G36*
X89398166Y-78564921D02*
G01*
X89534657Y-78621458D01*
X89657497Y-78703537D01*
X89761963Y-78808003D01*
X89844042Y-78930843D01*
X89900579Y-79067334D01*
X89929400Y-79212230D01*
X89929400Y-79359970D01*
X89900579Y-79504866D01*
X89844042Y-79641357D01*
X89761963Y-79764197D01*
X89657497Y-79868663D01*
X89534657Y-79950742D01*
X89398166Y-80007279D01*
X89253270Y-80036100D01*
X89105530Y-80036100D01*
X88960634Y-80007279D01*
X88824143Y-79950742D01*
X88701303Y-79868663D01*
X88596837Y-79764197D01*
X88514758Y-79641357D01*
X88458221Y-79504866D01*
X88429400Y-79359970D01*
X88429400Y-79212230D01*
X88458221Y-79067334D01*
X88514758Y-78930843D01*
X88596837Y-78808003D01*
X88701303Y-78703537D01*
X88824143Y-78621458D01*
X88960634Y-78564921D01*
X89105530Y-78536100D01*
X89253270Y-78536100D01*
X89398166Y-78564921D01*
G37*
G36*
X87389400Y-80036100D02*
G01*
X85889400Y-80036100D01*
X85889400Y-78536100D01*
X87389400Y-78536100D01*
X87389400Y-80036100D01*
G37*
G36*
X49990066Y-78514121D02*
G01*
X50126557Y-78570658D01*
X50249397Y-78652737D01*
X50353863Y-78757203D01*
X50435942Y-78880043D01*
X50492479Y-79016534D01*
X50521300Y-79161430D01*
X50521300Y-79309170D01*
X50492479Y-79454066D01*
X50435942Y-79590557D01*
X50353863Y-79713397D01*
X50249397Y-79817863D01*
X50126557Y-79899942D01*
X49990066Y-79956479D01*
X49845170Y-79985300D01*
X49697430Y-79985300D01*
X49552534Y-79956479D01*
X49416043Y-79899942D01*
X49293203Y-79817863D01*
X49188737Y-79713397D01*
X49106658Y-79590557D01*
X49050121Y-79454066D01*
X49021300Y-79309170D01*
X49021300Y-79161430D01*
X49050121Y-79016534D01*
X49106658Y-78880043D01*
X49188737Y-78757203D01*
X49293203Y-78652737D01*
X49416043Y-78570658D01*
X49552534Y-78514121D01*
X49697430Y-78485300D01*
X49845170Y-78485300D01*
X49990066Y-78514121D01*
G37*
G36*
X52530066Y-78514121D02*
G01*
X52666557Y-78570658D01*
X52789397Y-78652737D01*
X52893863Y-78757203D01*
X52975942Y-78880043D01*
X53032479Y-79016534D01*
X53061300Y-79161430D01*
X53061300Y-79309170D01*
X53032479Y-79454066D01*
X52975942Y-79590557D01*
X52893863Y-79713397D01*
X52789397Y-79817863D01*
X52666557Y-79899942D01*
X52530066Y-79956479D01*
X52385170Y-79985300D01*
X52237430Y-79985300D01*
X52092534Y-79956479D01*
X51956043Y-79899942D01*
X51833203Y-79817863D01*
X51728737Y-79713397D01*
X51646658Y-79590557D01*
X51590121Y-79454066D01*
X51561300Y-79309170D01*
X51561300Y-79161430D01*
X51590121Y-79016534D01*
X51646658Y-78880043D01*
X51728737Y-78757203D01*
X51833203Y-78652737D01*
X51956043Y-78570658D01*
X52092534Y-78514121D01*
X52237430Y-78485300D01*
X52385170Y-78485300D01*
X52530066Y-78514121D01*
G37*
G36*
X55070066Y-78514121D02*
G01*
X55206557Y-78570658D01*
X55329397Y-78652737D01*
X55433863Y-78757203D01*
X55515942Y-78880043D01*
X55572479Y-79016534D01*
X55601300Y-79161430D01*
X55601300Y-79309170D01*
X55572479Y-79454066D01*
X55515942Y-79590557D01*
X55433863Y-79713397D01*
X55329397Y-79817863D01*
X55206557Y-79899942D01*
X55070066Y-79956479D01*
X54925170Y-79985300D01*
X54777430Y-79985300D01*
X54632534Y-79956479D01*
X54496043Y-79899942D01*
X54373203Y-79817863D01*
X54268737Y-79713397D01*
X54186658Y-79590557D01*
X54130121Y-79454066D01*
X54101300Y-79309170D01*
X54101300Y-79161430D01*
X54130121Y-79016534D01*
X54186658Y-78880043D01*
X54268737Y-78757203D01*
X54373203Y-78652737D01*
X54496043Y-78570658D01*
X54632534Y-78514121D01*
X54777430Y-78485300D01*
X54925170Y-78485300D01*
X55070066Y-78514121D01*
G37*
G36*
X57610066Y-78514121D02*
G01*
X57746557Y-78570658D01*
X57869397Y-78652737D01*
X57973863Y-78757203D01*
X58055942Y-78880043D01*
X58112479Y-79016534D01*
X58141300Y-79161430D01*
X58141300Y-79309170D01*
X58112479Y-79454066D01*
X58055942Y-79590557D01*
X57973863Y-79713397D01*
X57869397Y-79817863D01*
X57746557Y-79899942D01*
X57610066Y-79956479D01*
X57465170Y-79985300D01*
X57317430Y-79985300D01*
X57172534Y-79956479D01*
X57036043Y-79899942D01*
X56913203Y-79817863D01*
X56808737Y-79713397D01*
X56726658Y-79590557D01*
X56670121Y-79454066D01*
X56641300Y-79309170D01*
X56641300Y-79161430D01*
X56670121Y-79016534D01*
X56726658Y-78880043D01*
X56808737Y-78757203D01*
X56913203Y-78652737D01*
X57036043Y-78570658D01*
X57172534Y-78514121D01*
X57317430Y-78485300D01*
X57465170Y-78485300D01*
X57610066Y-78514121D01*
G37*
G36*
X60150066Y-78514121D02*
G01*
X60286557Y-78570658D01*
X60409397Y-78652737D01*
X60513863Y-78757203D01*
X60595942Y-78880043D01*
X60652479Y-79016534D01*
X60681300Y-79161430D01*
X60681300Y-79309170D01*
X60652479Y-79454066D01*
X60595942Y-79590557D01*
X60513863Y-79713397D01*
X60409397Y-79817863D01*
X60286557Y-79899942D01*
X60150066Y-79956479D01*
X60005170Y-79985300D01*
X59857430Y-79985300D01*
X59712534Y-79956479D01*
X59576043Y-79899942D01*
X59453203Y-79817863D01*
X59348737Y-79713397D01*
X59266658Y-79590557D01*
X59210121Y-79454066D01*
X59181300Y-79309170D01*
X59181300Y-79161430D01*
X59210121Y-79016534D01*
X59266658Y-78880043D01*
X59348737Y-78757203D01*
X59453203Y-78652737D01*
X59576043Y-78570658D01*
X59712534Y-78514121D01*
X59857430Y-78485300D01*
X60005170Y-78485300D01*
X60150066Y-78514121D01*
G37*
G36*
X62690066Y-78514121D02*
G01*
X62826557Y-78570658D01*
X62949397Y-78652737D01*
X63053863Y-78757203D01*
X63135942Y-78880043D01*
X63192479Y-79016534D01*
X63221300Y-79161430D01*
X63221300Y-79309170D01*
X63192479Y-79454066D01*
X63135942Y-79590557D01*
X63053863Y-79713397D01*
X62949397Y-79817863D01*
X62826557Y-79899942D01*
X62690066Y-79956479D01*
X62545170Y-79985300D01*
X62397430Y-79985300D01*
X62252534Y-79956479D01*
X62116043Y-79899942D01*
X61993203Y-79817863D01*
X61888737Y-79713397D01*
X61806658Y-79590557D01*
X61750121Y-79454066D01*
X61721300Y-79309170D01*
X61721300Y-79161430D01*
X61750121Y-79016534D01*
X61806658Y-78880043D01*
X61888737Y-78757203D01*
X61993203Y-78652737D01*
X62116043Y-78570658D01*
X62252534Y-78514121D01*
X62397430Y-78485300D01*
X62545170Y-78485300D01*
X62690066Y-78514121D01*
G37*
G36*
X65230066Y-78514121D02*
G01*
X65366557Y-78570658D01*
X65489397Y-78652737D01*
X65593863Y-78757203D01*
X65675942Y-78880043D01*
X65732479Y-79016534D01*
X65761300Y-79161430D01*
X65761300Y-79309170D01*
X65732479Y-79454066D01*
X65675942Y-79590557D01*
X65593863Y-79713397D01*
X65489397Y-79817863D01*
X65366557Y-79899942D01*
X65230066Y-79956479D01*
X65085170Y-79985300D01*
X64937430Y-79985300D01*
X64792534Y-79956479D01*
X64656043Y-79899942D01*
X64533203Y-79817863D01*
X64428737Y-79713397D01*
X64346658Y-79590557D01*
X64290121Y-79454066D01*
X64261300Y-79309170D01*
X64261300Y-79161430D01*
X64290121Y-79016534D01*
X64346658Y-78880043D01*
X64428737Y-78757203D01*
X64533203Y-78652737D01*
X64656043Y-78570658D01*
X64792534Y-78514121D01*
X64937430Y-78485300D01*
X65085170Y-78485300D01*
X65230066Y-78514121D01*
G37*
G36*
X47981300Y-79985300D02*
G01*
X46481300Y-79985300D01*
X46481300Y-78485300D01*
X47981300Y-78485300D01*
X47981300Y-79985300D01*
G37*
M02*
